<?xml version="1.0" encoding="UTF-8"?>
<svg width="33px" height="33px" viewBox="0 0 33 33" version="1.1" xmlns="http://www.w3.org/2000/svg" xmlns:xlink="http://www.w3.org/1999/xlink">
    <title>icon_calendar</title>
    <g id="GitPage" stroke="none" stroke-width="1" fill="none" fill-rule="evenodd">
        <g id="DevOpsWeb_Main_XL-1200" transform="translate(-464, -1280)" fill="#303236">
            <path d="M483.938912,1280.35888 L484.005651,1280.37318 C484.036729,1280.3799 484.067775,1280.38671 484.098788,1280.39361 C484.174705,1280.4105 484.250315,1280.42789 484.325726,1280.44579 C484.389999,1280.46105 484.453984,1280.47665 484.517822,1280.49262 C484.560878,1280.50339 484.603856,1280.51433 484.646766,1280.52544 C484.698709,1280.53889 484.750555,1280.55258 484.8023,1280.56652 C485.028072,1280.62733 485.251998,1280.69283 485.473897,1280.7629 C485.525646,1280.77924 485.577048,1280.79575 485.628339,1280.81251 C485.681423,1280.82985 485.735034,1280.84767 485.788522,1280.86576 C485.849765,1280.88647 485.910079,1280.90726 485.970233,1280.92839 C486.011895,1280.94303 486.054242,1280.95809 486.096508,1280.97333 C486.160806,1280.99652 486.224026,1281.01975 486.287063,1281.04337 C486.389615,1281.08177 486.492717,1281.12158 486.595314,1281.16239 C486.616643,1281.17087 486.638038,1281.17943 486.65941,1281.18804 C486.743437,1281.22187 486.826898,1281.25628 486.910011,1281.29136 C486.949282,1281.30793 486.988983,1281.32486 487.028604,1281.34195 C487.104327,1281.37461 487.179249,1281.4076 487.253877,1281.44112 C487.271472,1281.44902 487.28938,1281.4571 487.307271,1281.46522 L487.406203,1281.51048 C487.444488,1281.52815 487.482694,1281.54596 487.520819,1281.56391 C487.706958,1281.65155 487.891383,1281.74267 488.07382,1281.8371 C488.15013,1281.8766 488.225721,1281.91648 488.300962,1281.95692 C488.316862,1281.96547 488.333202,1281.97429 488.349525,1281.98313 C488.541896,1282.08737 488.731629,1282.19513 488.918969,1282.30649 C488.944386,1282.3216 488.969939,1282.33689 488.995447,1282.35224 C489.095961,1282.41272 489.195465,1282.47406 489.294262,1282.53641 C489.309019,1282.54572 489.323747,1282.55505 489.338458,1282.5644 C489.418952,1282.61556 489.498995,1282.66741 489.578556,1282.71993 C489.603484,1282.73639 489.628472,1282.75298 489.653413,1282.76964 C489.720967,1282.81477 489.787954,1282.86023 489.854587,1282.90617 C489.898084,1282.93616 489.941433,1282.96636 489.98463,1282.99676 C490.105768,1283.082 490.226105,1283.16912 490.345204,1283.25781 C490.449944,1283.33581 490.553569,1283.4149 490.656219,1283.49518 C490.692271,1283.52337 490.728205,1283.55172 490.764018,1283.58021 C490.80662,1283.6141 490.848946,1283.64811 490.8911,1283.68232 C490.939681,1283.72176 490.988324,1283.7617 491.036734,1283.80191 C491.078172,1283.83634 491.11908,1283.87066 491.159818,1283.90517 C491.324051,1284.0443 491.485855,1284.18689 491.644797,1284.33255 C491.666946,1284.35285 491.689256,1284.37341 491.711509,1284.39403 C492.054775,1284.71212 492.383874,1285.04395 492.698515,1285.3892 C492.740443,1285.43521 492.781818,1285.48112 492.822938,1285.52727 C492.857234,1285.56575 492.891698,1285.6048 492.92598,1285.64401 C492.958809,1285.68155 492.991181,1285.71891 493.023386,1285.75642 C495.035519,1288.09963 496.401398,1291.01432 496.844262,1294.22368 C496.869369,1294.40511 496.891151,1294.58509 496.910017,1294.76591 C496.920429,1294.86612 496.929962,1294.9662 496.938597,1295.06654 C496.94122,1295.09674 496.943749,1295.12713 496.946195,1295.15753 C496.96774,1295.42535 496.982912,1295.69501 496.991533,1295.96632 C496.993082,1296.01509 496.994415,1296.06373 496.995538,1296.11242 C496.998505,1296.24104 497,1296.37035 497,1296.5 C497,1296.61927 496.998735,1296.73824 496.996216,1296.85691 L497,1296.5 C497,1296.67649 496.997229,1296.85233 496.991728,1297.02748 C496.989312,1297.10441 496.986378,1297.18099 496.982923,1297.25744 C496.980754,1297.30543 496.978395,1297.35309 496.975834,1297.4007 C496.955873,1297.77191 496.923597,1298.14023 496.879427,1298.50488 C496.872718,1298.56027 496.865729,1298.61561 496.858467,1298.67087 C496.809854,1299.04086 496.748876,1299.40751 496.676028,1299.76987 C496.669804,1299.80083 496.663416,1299.83213 496.656939,1299.86341 C496.579657,1300.2365 496.489933,1300.60444 496.38811,1300.96732 C496.376987,1301.00695 496.365889,1301.04594 496.354651,1301.08487 C496.335208,1301.15224 496.315147,1301.22009 496.294663,1301.28775 C496.230763,1301.49883 496.162793,1301.70799 496.090805,1301.91527 C496.070977,1301.97237 496.050599,1302.03001 496.029911,1302.0875 C496.012112,1302.13696 495.994241,1302.18589 495.976145,1302.2347 C495.953744,1302.29514 495.93083,1302.35585 495.907569,1302.41639 C495.889824,1302.46256 495.872103,1302.50807 495.854187,1302.55348 L495.846799,1302.57217 C495.80477,1302.6783 495.761671,1302.7839 495.717517,1302.88894 C495.702325,1302.92509 495.68674,1302.96179 495.671027,1302.99843 C495.639467,1303.072 495.607701,1303.1446 495.57543,1303.21692 C495.557774,1303.25649 495.539752,1303.29645 495.521576,1303.33632 C495.49075,1303.40394 495.459618,1303.47103 495.428051,1303.53787 C495.340428,1303.72341 495.249384,1303.90717 495.155056,1304.08895 C495.119711,1304.15707 495.084037,1304.22466 495.047909,1304.29197 C495.024632,1304.33534 495.000977,1304.37894 494.977132,1304.42242 C494.673232,1304.97657 494.33852,1305.51126 493.975246,1306.02429 C493.953889,1306.05445 493.932696,1306.08417 493.911407,1306.11382 C493.867344,1306.17518 493.822841,1306.23626 493.777931,1306.29703 C493.749021,1306.33615 493.71974,1306.3754 493.690288,1306.41452 C493.552986,1306.59688 493.412544,1306.77562 493.268546,1306.95134 C493.254663,1306.96828 493.241348,1306.98446 493.228003,1307.00062 C492.118244,1308.34425 490.799831,1309.50918 489.322384,1310.4458 C489.317285,1310.44903 489.312237,1310.45223 489.307187,1310.45542 L489.322384,1310.4458 C489.207165,1310.51884 489.090979,1310.5905 488.97385,1310.66074 C488.946405,1310.6772 488.918836,1310.69362 488.891215,1310.70997 C488.817561,1310.75355 488.743779,1310.79645 488.669637,1310.83878 C488.630239,1310.86128 488.590164,1310.88394 488.549986,1310.90644 C488.478616,1310.9464 488.407419,1310.98558 488.335904,1311.02424 C488.151556,1311.12391 487.965165,1311.22013 487.776748,1311.31287 C487.584834,1311.40733 487.390387,1311.49836 487.193916,1311.58567 C487.122501,1311.61741 487.050934,1311.6486 486.979105,1311.6793 C486.92353,1311.70305 486.867773,1311.72652 486.811861,1311.74969 C486.760314,1311.77105 486.708336,1311.79227 486.656226,1311.81324 C486.575848,1311.84558 486.495768,1311.87707 486.415385,1311.90795 C486.386278,1311.91914 486.356529,1311.93047 486.32674,1311.94171 C486.212512,1311.98483 486.09826,1312.02652 485.983426,1312.06697 C485.953162,1312.07763 485.922525,1312.08832 485.891846,1312.09892 C485.797375,1312.13157 485.702754,1312.1633 485.607754,1312.1942 C485.578374,1312.20375 485.549348,1312.2131 485.520287,1312.22238 C485.432808,1312.25029 485.344392,1312.27768 485.25566,1312.30434 C485.224078,1312.31383 485.192618,1312.32318 485.161119,1312.33244 L485.132058,1312.34095 C484.901387,1312.40829 484.668626,1312.47073 484.433894,1312.52814 C484.389589,1312.53898 484.345169,1312.54965 484.300679,1312.56014 C483.930711,1312.64736 483.555969,1312.72212 483.176886,1312.78396 C483.134183,1312.79093 483.091774,1312.79767 483.049312,1312.80426 C482.934799,1312.82202 482.819666,1312.83864 482.704155,1312.85406 C482.657864,1312.86024 482.610951,1312.8663 482.563978,1312.87216 C482.486298,1312.88185 482.408686,1312.89098 482.330912,1312.89956 C482.276076,1312.90562 482.221064,1312.91141 482.165973,1312.91694 C482.059753,1312.92758 481.953771,1312.93718 481.847506,1312.94577 C481.832725,1312.94696 481.817689,1312.94816 481.802647,1312.94933 C481.681095,1312.95883 481.559342,1312.96699 481.437235,1312.97383 C481.370018,1312.97759 481.302358,1312.98097 481.234591,1312.98394 C481.179218,1312.98637 481.123931,1312.98851 481.068575,1312.99039 C480.994209,1312.99291 480.919822,1312.99493 480.845312,1312.99646 C480.837573,1312.99662 480.829237,1312.99678 480.820899,1312.99694 L480.5,1313 C471.387302,1313 464,1305.6127 464,1296.5 C464,1287.3873 471.387302,1280 480.5,1280 C480.610558,1280 480.720863,1280.00109 480.830903,1280.00325 L480.5,1280 C480.683264,1280 480.86583,1280.00299 481.047652,1280.00892 C481.108319,1280.0109 481.168917,1280.0132 481.229431,1280.01583 C481.273281,1280.01774 481.316961,1280.01981 481.360596,1280.02206 C481.46302,1280.02732 481.565407,1280.03353 481.667537,1280.04067 C481.683939,1280.04182 481.699933,1280.04296 481.71592,1280.04412 C481.968279,1280.0625 482.219459,1280.08659 482.468931,1280.11626 C482.497865,1280.1197 482.527577,1280.12331 482.557265,1280.127 C482.635461,1280.13673 482.712995,1280.14694 482.790357,1280.15768 C482.844688,1280.16523 482.898734,1280.17301 482.952694,1280.18105 C483.044237,1280.19469 483.135712,1280.20911 483.226933,1280.22428 C483.241257,1280.22666 483.255558,1280.22906 483.269853,1280.23148 L483.32987,1280.24174 C483.534196,1280.27705 483.737235,1280.31613 483.938912,1280.35888 Z M490.500091,1286.00005 L478,1286 C475.790861,1286 474,1287.79086 474,1290 L474,1306 C474,1308.20914 475.790861,1310 478,1310 L485.799949,1310.00086 C487.560452,1309.30921 489.1529,1308.28315 490.499095,1307.0009 L479,1307 C477.895431,1307 477,1306.10457 477,1305 L477,1295 C477,1293.89543 477.895431,1293 479,1293 L494.574788,1293.0001 C493.901556,1290.28377 492.46255,1287.86965 490.500091,1286.00005 Z M488,1301 L485,1301 L485,1304 L488,1304 L488,1301 Z M493,1301 L490,1301 L490,1304 L492.91194,1304.00039 C492.942022,1303.95072 492.971815,1303.90085 493.001315,1303.85078 L493,1301 Z M483,1301 L480,1301 L480,1304 L483,1304 L483,1301 Z M493,1296 L490,1296 L490,1299 L493,1299 L493,1296 Z M488,1296 L485,1296 L485,1299 L488,1299 L488,1296 Z" id="icon_calendar"></path>
        </g>
    </g>
</svg>