<?xml version="1.0" encoding="UTF-8"?>
<svg width="33px" height="33px" viewBox="0 0 33 33" version="1.1" xmlns="http://www.w3.org/2000/svg" xmlns:xlink="http://www.w3.org/1999/xlink">
    <title>icon_catalog</title>
    <g id="GitPage" stroke="none" stroke-width="1" fill="none" fill-rule="evenodd">
        <g id="DevOpsWeb_Main_XL-1200" transform="translate(-117, -655)" fill="#303236">
            <path d="M136.793581,687.671226 L136.715719,687.686819 C136.655186,687.698777 136.594533,687.710403 136.533764,687.721697 C136.485792,687.730601 136.437753,687.739308 136.389642,687.747807 C136.295804,687.764395 136.201404,687.780225 136.106736,687.79525 C136.094738,687.797147 136.082719,687.799041 136.070695,687.800922 C135.996067,687.812604 135.921349,687.823767 135.846469,687.834428 C135.641893,687.863553 135.43584,687.888959 135.228648,687.91053 C135.155036,687.918196 135.08125,687.925379 135.007323,687.932074 C134.988658,687.933763 134.970015,687.935419 134.951362,687.937045 C134.858024,687.945181 134.764389,687.952544 134.670537,687.959122 C134.653384,687.960324 134.636026,687.961513 134.61866,687.962676 L134.458177,687.972642 C134.424941,687.974545 134.391678,687.97635 134.358389,687.978056 C134.298797,687.981112 134.238467,687.983879 134.178054,687.986321 C134.119243,687.988696 134.061035,687.990743 134.00275,687.992487 C133.948831,687.994102 133.894427,687.995467 133.839958,687.996567 C133.833571,687.996697 133.827236,687.996821 133.820899,687.996942 L133.5,688 C124.387302,688 117,680.612698 117,671.5 C117,662.387302 124.387302,655 133.5,655 C133.610223,655 133.720194,655.001081 133.829903,655.003232 L133.5,655 C133.684643,655 133.868578,655.003033 134.051757,655.009052 C134.109636,655.010953 134.167571,655.013158 134.225428,655.015661 C134.273073,655.017724 134.32008,655.019958 134.367035,655.022389 C134.458296,655.02711 134.550016,655.032617 134.641531,655.038871 C134.671195,655.040898 134.700808,655.043001 134.730399,655.045182 C134.850385,655.054028 134.969907,655.064147 135.08906,655.075532 L135.101967,655.076771 C135.128725,655.079349 135.155464,655.081991 135.182185,655.084696 C135.270867,655.093673 135.360017,655.10343 135.44895,655.113895 C135.497455,655.119604 135.545757,655.125505 135.593994,655.131614 C135.665041,655.140611 135.736292,655.150107 135.807398,655.160057 C135.851477,655.166225 135.895407,655.172554 135.939281,655.179055 C136.039958,655.193975 136.140099,655.209765 136.239937,655.226451 C136.255045,655.228975 136.270691,655.231613 136.28633,655.234273 C136.64186,655.294752 136.992935,655.366465 137.339763,655.449129 C137.40031,655.463559 137.461004,655.478391 137.521565,655.493559 C137.556859,655.502399 137.591848,655.511285 137.626791,655.520283 C137.689158,655.536343 137.751424,655.552769 137.813544,655.569549 C137.898134,655.592396 137.982828,655.616006 138.067243,655.640272 C138.151365,655.664455 138.234747,655.689149 138.317851,655.714481 C138.366264,655.729238 138.414623,655.744225 138.462887,655.759427 C138.522612,655.77824 138.58228,655.797412 138.641798,655.816913 C138.695399,655.834475 138.749037,655.852358 138.802552,655.870508 C138.857003,655.888975 138.911304,655.907712 138.965477,655.926723 C139.012923,655.943373 139.060266,655.960233 139.107509,655.977303 C139.159336,655.99603 139.21061,656.014848 139.261764,656.033913 L139.289002,656.044092 C139.387531,656.081013 139.485614,656.118849 139.583239,656.15759 C139.633225,656.177428 139.682609,656.197307 139.731875,656.217417 C139.790394,656.241304 139.848783,656.265533 139.907002,656.290087 C139.955428,656.31051 140.004142,656.331332 140.052735,656.352382 C140.110527,656.377417 140.167805,656.402622 140.224912,656.428141 C140.271795,656.449092 140.318422,656.470191 140.364934,656.4915 C140.439269,656.525554 140.513766,656.560362 140.587958,656.595708 C140.618186,656.610109 140.648719,656.62477 140.679199,656.639523 C140.780814,656.68871 140.881178,656.738567 140.980956,656.789409 C141.009145,656.803773 141.037196,656.818169 141.065199,656.832642 C141.137765,656.870146 141.210028,656.908179 141.281973,656.94673 C141.319854,656.967028 141.35781,656.987558 141.395676,657.008233 C141.46194,657.044413 141.527918,657.081028 141.593616,657.11808 C141.632351,657.139925 141.670952,657.161902 141.709455,657.184029 C142.005096,657.353932 142.294887,657.532671 142.578556,657.719934 C142.605877,657.737973 142.632488,657.755652 142.659044,657.773407 C142.744837,657.830762 142.830475,657.889188 142.91553,657.948394 C142.931477,657.959495 142.947431,657.970642 142.963365,657.981817 C143.037294,658.033667 143.110797,658.086122 143.183849,658.139161 C143.343718,658.255233 143.501495,658.374159 143.657033,658.495815 C143.702015,658.531 143.746631,658.566269 143.791059,658.601764 C143.821474,658.626063 143.851795,658.650462 143.882027,658.674966 C144.446272,659.132283 144.979895,659.626245 145.479129,660.153119 L145.501654,660.176938 C145.518721,660.195021 145.535747,660.213143 145.552733,660.231303 C145.679104,660.366398 145.803703,660.504161 145.92598,660.644007 C145.962456,660.685723 145.998681,660.727574 146.034698,660.769608 C146.081265,660.823951 146.127768,660.87894 146.173915,660.934235 C146.198296,660.963447 146.22273,660.992931 146.247064,661.022501 C148.591975,663.872046 150,667.521592 150,671.5 C150,675.076413 148.862144,678.387065 146.9287,681.089691 C146.907443,681.118221 146.886818,681.146857 146.866103,681.175425 C146.539474,681.627031 146.190025,682.060995 145.819907,682.476132 C145.803561,682.49354 145.787425,682.511562 145.77125,682.529548 C145.330123,683.020917 144.859707,683.485054 144.362976,683.919872 C144.335294,683.94348 144.307609,683.967557 144.279843,683.991544 C144.133865,684.11824 143.98553,684.241908 143.835026,684.362988 C143.80226,684.388816 143.769512,684.414963 143.736662,684.440988 C143.310076,684.779407 142.866101,685.096848 142.406518,685.392107 C142.378735,685.409625 142.350683,685.427531 142.322574,685.445355 C142.254192,685.489031 142.185662,685.531774 142.116798,685.574026 C142.087488,685.591709 142.05843,685.609417 142.029313,685.627037 C141.659815,685.85091 141.280308,686.06067 140.892045,686.255557 C140.843971,686.279502 140.796348,686.303119 140.748596,686.326512 C140.697886,686.351529 140.646498,686.37637 140.594963,686.400952 C140.552088,686.421242 140.509105,686.441519 140.46602,686.461616 C140.072606,686.645239 139.671212,686.813475 139.26214,686.965947 C139.200166,686.988964 139.137571,687.011866 139.074799,687.034398 C139.033577,687.049271 138.992584,687.063799 138.951517,687.078169 C138.899137,687.096428 138.846442,687.114569 138.793626,687.13245 C138.729125,687.154351 138.664539,687.175766 138.599777,687.196793 C138.565119,687.207986 138.530746,687.21902 138.496325,687.229945 C138.405459,687.25884 138.313666,687.287089 138.221534,687.314555 C138.207393,687.318725 138.193041,687.322983 138.178681,687.327221 C137.969185,687.389094 137.75831,687.446785 137.545795,687.500353 C137.497446,687.512512 137.449212,687.524437 137.400895,687.53615 C137.319731,687.555851 137.238355,687.57492 137.15675,687.593384 C137.146323,687.595721 137.135667,687.598122 137.125008,687.600511 C137.062995,687.614433 137.001018,687.62795 136.938912,687.641117 L136.793581,687.671226 Z M143.906755,661.402984 L143.761221,661.441197 C142.031252,661.924158 140.419186,662.793503 139.054362,663.999903 L140,664 L139.998942,682.198285 C141.536651,681.094242 143.313933,680.371871 145.181984,680.087872 C146.953584,677.685852 148,674.715128 148,671.5 C148,667.574712 146.440265,664.01372 143.906755,661.402984 Z M131,661 C129.597333,661 128.250667,661.239402 127,661.680944 L127,680.632694 C128.284827,680.180541 129.637553,679.950262 131,679.951761 C133.612222,679.951761 136.029868,680.784779 137.999949,682.198471 L138,664 L138.944,664 L138.721914,663.807038 C136.564502,661.993145 133.829508,660.996114 131,661 Z M129.37998,663.804527 C132.587948,664.136405 134.678462,664.726821 135.740581,665.695508 L134.392858,667.173223 C133.746325,666.583564 131.977076,666.083882 129.17417,665.793909 L129.37998,663.804527 Z" id="icon_catalog"></path>
        </g>
    </g>
</svg>