<?xml version="1.0" encoding="UTF-8"?>
<svg width="188.449554px" height="41.921875px" viewBox="0 0 188.449554 41.921875" version="1.1" xmlns="http://www.w3.org/2000/svg" xmlns:xlink="http://www.w3.org/1999/xlink">
    <title>Logo</title>
    <g id="GitPage" stroke="none" stroke-width="1" fill="none" fill-rule="evenodd">
        <g id="Main_XL-1200-Copy" transform="translate(-151, -30.3633)">
            <g id="Header" transform="translate(151, 26)">
                <g id="Logo" transform="translate(0, 4.3633)">
                    <g id="Parallels-Desktop-De" transform="translate(28.2578, 0)" fill="#181E26" fill-opacity="0.85" fill-rule="nonzero">
                        <path d="M3.19238281,0.642578125 C4.48209635,0.642578125 5.42317708,0.919433594 6.015625,1.47314453 C6.60807292,2.02685547 6.90429688,2.7890625 6.90429688,3.75976562 C6.90429688,4.19726562 6.83821615,4.61539714 6.70605469,5.01416016 C6.57389323,5.41292318 6.3585612,5.7672526 6.06005859,6.07714844 C5.76155599,6.38704427 5.36393229,6.6319987 4.8671875,6.81201172 C4.37044271,6.99202474 3.75748698,7.08203125 3.02832031,7.08203125 L2.11914062,7.08203125 L2.11914062,10.6367188 L0,10.6367188 L0,0.642578125 L3.19238281,0.642578125 Z M3.08300781,2.37890625 L2.11914062,2.37890625 L2.11914062,5.34570312 L2.81640625,5.34570312 C3.21289062,5.34570312 3.55696615,5.29329427 3.84863281,5.18847656 C4.14029948,5.08365885 4.36588542,4.91959635 4.52539062,4.69628906 C4.68489583,4.47298177 4.76464844,4.1858724 4.76464844,3.83496094 C4.76464844,3.34277344 4.62792969,2.97705078 4.35449219,2.73779297 C4.08105469,2.49853516 3.65722656,2.37890625 3.08300781,2.37890625 Z" id="Shape"></path>
                        <path d="M11.4578125,2.83691406 C12.4832031,2.83691406 13.2693359,3.06022135 13.8162109,3.50683594 C14.3630859,3.95345052 14.6365234,4.63248698 14.6365234,5.54394531 L14.6365234,10.6367188 L13.1804687,10.6367188 L12.7771484,9.59765625 L12.7224609,9.59765625 C12.5037109,9.87109375 12.2804036,10.094401 12.0525391,10.2675781 C11.8246745,10.4407552 11.5626302,10.5683594 11.2664062,10.6503906 C10.9701823,10.7324219 10.6101562,10.7734375 10.1863281,10.7734375 C9.73515625,10.7734375 9.33069661,10.686849 8.97294922,10.5136719 C8.61520182,10.3404948 8.33378906,10.0750326 8.12871094,9.71728516 C7.92363281,9.35953776 7.82109375,8.90494792 7.82109375,8.35351562 C7.82109375,7.54231771 8.10592448,6.94417318 8.67558594,6.55908203 C9.2452474,6.17399089 10.0997396,5.9609375 11.2390625,5.91992188 L12.5652344,5.87890625 L12.5652344,5.54394531 C12.5652344,5.14290365 12.4604167,4.84895833 12.2507812,4.66210938 C12.0411458,4.47526042 11.7494792,4.38183594 11.3757812,4.38183594 C11.0066406,4.38183594 10.6443359,4.43424479 10.2888672,4.5390625 C9.93339844,4.64388021 9.57792969,4.77604167 9.22246094,4.93554688 L8.53203125,3.52734375 C8.93763021,3.31315104 9.39222005,3.14453125 9.89580078,3.02148438 C10.3993815,2.8984375 10.9200521,2.83691406 11.4578125,2.83691406 Z M12.5652344,7.09570312 L11.7585937,7.12304688 C11.0841146,7.14127604 10.6158529,7.26204427 10.3538086,7.48535156 C10.0917643,7.70865885 9.96074219,8.00260417 9.96074219,8.3671875 C9.96074219,8.68619792 10.0541667,8.91292318 10.2410156,9.04736328 C10.4278646,9.18180339 10.6716797,9.24902344 10.9724609,9.24902344 C11.4190755,9.24902344 11.7961914,9.11686198 12.1038086,8.85253906 C12.4114258,8.58821615 12.5652344,8.21223958 12.5652344,7.72460938 L12.5652344,7.09570312 Z" id="Shape"></path>
                        <path d="M20.7486328,2.85058594 C20.8534505,2.85058594 20.9753581,2.85628255 21.1143555,2.86767578 C21.2533529,2.87906901 21.3661458,2.89388021 21.4527344,2.91210938 L21.2955078,4.8671875 C21.2271484,4.84440104 21.130306,4.8273112 21.0049805,4.81591797 C20.8796549,4.80452474 20.7714193,4.79882812 20.6802734,4.79882812 C20.4113932,4.79882812 20.1504883,4.83300781 19.8975586,4.90136719 C19.6446289,4.96972656 19.4179036,5.08024089 19.2173828,5.23291016 C19.016862,5.38557943 18.8584961,5.58610026 18.7422852,5.83447266 C18.6260742,6.08284505 18.5679688,6.38704427 18.5679688,6.74707031 L18.5679688,10.6367188 L16.4830078,10.6367188 L16.4830078,2.99414062 L18.0621094,2.99414062 L18.3697266,4.27929688 L18.4722656,4.27929688 C18.6226563,4.01953125 18.8106445,3.78141276 19.0362305,3.56494141 C19.2618164,3.34847005 19.5193034,3.17529297 19.8086914,3.04541016 C20.0980794,2.91552734 20.4113932,2.85058594 20.7486328,2.85058594 Z" id="Path"></path>
                        <path d="M25.6712891,2.83691406 C26.6966797,2.83691406 27.4828125,3.06022135 28.0296875,3.50683594 C28.5765625,3.95345052 28.85,4.63248698 28.85,5.54394531 L28.85,10.6367188 L27.3939453,10.6367188 L26.990625,9.59765625 L26.9359375,9.59765625 C26.7171875,9.87109375 26.4938802,10.094401 26.2660156,10.2675781 C26.038151,10.4407552 25.7761068,10.5683594 25.4798828,10.6503906 C25.1836589,10.7324219 24.8236328,10.7734375 24.3998047,10.7734375 C23.9486328,10.7734375 23.5441732,10.686849 23.1864258,10.5136719 C22.8286784,10.3404948 22.5472656,10.0750326 22.3421875,9.71728516 C22.1371094,9.35953776 22.0345703,8.90494792 22.0345703,8.35351562 C22.0345703,7.54231771 22.319401,6.94417318 22.8890625,6.55908203 C23.458724,6.17399089 24.3132161,5.9609375 25.4525391,5.91992188 L26.7787109,5.87890625 L26.7787109,5.54394531 C26.7787109,5.14290365 26.6738932,4.84895833 26.4642578,4.66210938 C26.2546224,4.47526042 25.9629557,4.38183594 25.5892578,4.38183594 C25.2201172,4.38183594 24.8578125,4.43424479 24.5023437,4.5390625 C24.146875,4.64388021 23.7914062,4.77604167 23.4359375,4.93554688 L22.7455078,3.52734375 C23.1511068,3.31315104 23.6056966,3.14453125 24.1092773,3.02148438 C24.6128581,2.8984375 25.1335286,2.83691406 25.6712891,2.83691406 Z M26.7787109,7.09570312 L25.9720703,7.12304688 C25.2975911,7.14127604 24.8293294,7.26204427 24.5672852,7.48535156 C24.3052409,7.70865885 24.1742187,8.00260417 24.1742187,8.3671875 C24.1742187,8.68619792 24.2676432,8.91292318 24.4544922,9.04736328 C24.6413411,9.18180339 24.8851562,9.24902344 25.1859375,9.24902344 C25.6325521,9.24902344 26.009668,9.11686198 26.3172852,8.85253906 C26.6249023,8.58821615 26.7787109,8.21223958 26.7787109,7.72460938 L26.7787109,7.09570312 Z" id="Shape"></path>
                        <polygon id="Path" points="32.7814453 10.6367188 30.6964844 10.6367188 30.6964844 0 32.7814453 0"></polygon>
                        <polygon id="Path" points="36.7539062 10.6367188 34.6689453 10.6367188 34.6689453 0 36.7539062 0"></polygon>
                        <path d="M41.7927734,2.85058594 C42.4991536,2.85058594 43.1075521,2.98616536 43.6179687,3.25732422 C44.1283854,3.52848307 44.5225911,3.92154948 44.8005859,4.43652344 C45.0785807,4.9514974 45.2175781,5.58040365 45.2175781,6.32324219 L45.2175781,7.33496094 L40.2888672,7.33496094 C40.3116536,7.92285156 40.4882487,8.38427734 40.8186523,8.71923828 C41.149056,9.05419922 41.6082031,9.22167969 42.1960937,9.22167969 C42.683724,9.22167969 43.1303385,9.17154948 43.5359375,9.07128906 C43.9415365,8.97102865 44.3585286,8.82063802 44.7869141,8.62011719 L44.7869141,10.2333984 C44.4086589,10.4202474 44.0133138,10.5569661 43.6008789,10.6435547 C43.188444,10.7301432 42.6882812,10.7734375 42.1003906,10.7734375 C41.3347656,10.7734375 40.6568685,10.6321615 40.0666992,10.3496094 C39.4765299,10.0670573 39.0139648,9.63639323 38.6790039,9.05761719 C38.344043,8.47884115 38.1765625,7.74967448 38.1765625,6.87011719 C38.1765625,5.97688802 38.3280924,5.23291016 38.6311523,4.63818359 C38.9342122,4.04345703 39.356901,3.59684245 39.8992187,3.29833984 C40.4415365,2.99983724 41.0727214,2.85058594 41.7927734,2.85058594 Z M41.8064453,4.33398438 C41.4008464,4.33398438 41.0647461,4.46386719 40.7981445,4.72363281 C40.531543,4.98339844 40.3777344,5.39127604 40.3367187,5.94726562 L43.2625,5.94726562 C43.2579427,5.63736979 43.2021159,5.36165365 43.0950195,5.12011719 C42.9879232,4.87858073 42.828418,4.68717448 42.6165039,4.54589844 C42.4045898,4.4046224 42.1345703,4.33398438 41.8064453,4.33398438 Z" id="Shape"></path>
                        <polygon id="Path" points="48.6978516 10.6367188 46.6128906 10.6367188 46.6128906 0 48.6978516 0"></polygon>
                        <path d="M55.9173828,8.3671875 C55.9173828,8.88671875 55.7954753,9.32535807 55.5516602,9.68310547 C55.3078451,10.0408529 54.944401,10.3120117 54.4613281,10.496582 C53.9782552,10.6811523 53.3766927,10.7734375 52.6566406,10.7734375 C52.1234375,10.7734375 51.666569,10.7392578 51.2860352,10.6708984 C50.9055013,10.6025391 50.5215495,10.4886068 50.1341797,10.3291016 L50.1341797,8.60644531 C50.5488932,8.79329427 50.9943685,8.94710286 51.4706055,9.06787109 C51.9468424,9.18863932 52.364974,9.24902344 52.725,9.24902344 C53.130599,9.24902344 53.4211263,9.18863932 53.596582,9.06787109 C53.7720378,8.94710286 53.8597656,8.78873698 53.8597656,8.59277344 C53.8597656,8.46516927 53.8244466,8.35009766 53.7538086,8.24755859 C53.6831706,8.14501953 53.5316406,8.02880859 53.2992187,7.89892578 C53.0667969,7.76904297 52.7022135,7.59928385 52.2054687,7.38964844 C51.7269531,7.1891276 51.3338867,6.98632812 51.0262695,6.78125 C50.7186523,6.57617188 50.4907878,6.33349609 50.3426758,6.05322266 C50.1945638,5.77294922 50.1205078,5.41634115 50.1205078,4.98339844 C50.1205078,4.27701823 50.3950846,3.74495443 50.9442383,3.38720703 C51.4933919,3.02945964 52.2282552,2.85058594 53.1488281,2.85058594 C53.6227865,2.85058594 54.0750977,2.8984375 54.5057617,2.99414062 C54.9364258,3.08984375 55.3796224,3.24251302 55.8353516,3.45214844 L55.2064453,4.95605469 C54.8281901,4.79199219 54.471582,4.65755208 54.1366211,4.55273438 C53.8016602,4.44791667 53.4610026,4.39550781 53.1146484,4.39550781 C52.8093099,4.39550781 52.5791667,4.43652344 52.4242187,4.51855469 C52.2692708,4.60058594 52.1917969,4.72591146 52.1917969,4.89453125 C52.1917969,5.01757812 52.2316732,5.12695312 52.3114258,5.22265625 C52.3911784,5.31835938 52.5461263,5.42431641 52.7762695,5.54052734 C53.0064128,5.65673828 53.3447917,5.80598958 53.7914062,5.98828125 C54.224349,6.16601562 54.6003255,6.35172526 54.9193359,6.54541016 C55.2383464,6.73909505 55.4844401,6.97835286 55.6576172,7.26318359 C55.8307943,7.54801432 55.9173828,7.91601562 55.9173828,8.3671875 Z" id="Path"></path>
                        <path d="M69.0371094,5.54394531 C69.0371094,6.66959635 68.8217773,7.60953776 68.3911133,8.36376953 C67.9604492,9.1180013 67.3372396,9.68538411 66.5214844,10.065918 C65.7057292,10.4464518 64.7236328,10.6367188 63.5751953,10.6367188 L60.7451172,10.6367188 L60.7451172,0.642578125 L63.8828125,0.642578125 C64.9309896,0.642578125 65.8401693,0.82828776 66.6103516,1.19970703 C67.3805339,1.5711263 67.9775391,2.12027995 68.4013672,2.84716797 C68.8251953,3.57405599 69.0371094,4.47298177 69.0371094,5.54394531 Z M66.8359375,5.59863281 C66.8359375,4.86035156 66.7277018,4.25309245 66.5112305,3.77685547 C66.2947591,3.30061849 65.9757487,2.94856771 65.5541992,2.72070312 C65.1326497,2.49283854 64.6119792,2.37890625 63.9921875,2.37890625 L62.8642578,2.37890625 L62.8642578,8.88671875 L63.7734375,8.88671875 C64.8079427,8.88671875 65.5769857,8.6110026 66.0805664,8.05957031 C66.5841471,7.50813802 66.8359375,6.68782552 66.8359375,5.59863281 Z" id="Shape"></path>
                        <path d="M73.7957031,2.85058594 C74.5020833,2.85058594 75.1104818,2.98616536 75.6208984,3.25732422 C76.1313151,3.52848307 76.5255208,3.92154948 76.8035156,4.43652344 C77.0815104,4.9514974 77.2205078,5.58040365 77.2205078,6.32324219 L77.2205078,7.33496094 L72.2917969,7.33496094 C72.3145833,7.92285156 72.4911784,8.38427734 72.821582,8.71923828 C73.1519857,9.05419922 73.6111328,9.22167969 74.1990234,9.22167969 C74.6866536,9.22167969 75.1332682,9.17154948 75.5388672,9.07128906 C75.9444661,8.97102865 76.3614583,8.82063802 76.7898437,8.62011719 L76.7898437,10.2333984 C76.4115885,10.4202474 76.0162435,10.5569661 75.6038086,10.6435547 C75.1913737,10.7301432 74.6912109,10.7734375 74.1033203,10.7734375 C73.3376953,10.7734375 72.6597982,10.6321615 72.0696289,10.3496094 C71.4794596,10.0670573 71.0168945,9.63639323 70.6819336,9.05761719 C70.3469727,8.47884115 70.1794922,7.74967448 70.1794922,6.87011719 C70.1794922,5.97688802 70.3310221,5.23291016 70.634082,4.63818359 C70.9371419,4.04345703 71.3598307,3.59684245 71.9021484,3.29833984 C72.4444661,2.99983724 73.075651,2.85058594 73.7957031,2.85058594 Z M73.809375,4.33398438 C73.403776,4.33398438 73.0676758,4.46386719 72.8010742,4.72363281 C72.5344727,4.98339844 72.3806641,5.39127604 72.3396484,5.94726562 L75.2654297,5.94726562 C75.2608724,5.63736979 75.2050456,5.36165365 75.0979492,5.12011719 C74.9908529,4.87858073 74.8313477,4.68717448 74.6194336,4.54589844 C74.4075195,4.4046224 74.1375,4.33398438 73.809375,4.33398438 Z" id="Shape"></path>
                        <path d="M83.9478516,8.3671875 C83.9478516,8.88671875 83.825944,9.32535807 83.5821289,9.68310547 C83.3383138,10.0408529 82.9748698,10.3120117 82.4917969,10.496582 C82.008724,10.6811523 81.4071615,10.7734375 80.6871094,10.7734375 C80.1539063,10.7734375 79.6970378,10.7392578 79.3165039,10.6708984 C78.9359701,10.6025391 78.5520182,10.4886068 78.1646484,10.3291016 L78.1646484,8.60644531 C78.579362,8.79329427 79.0248372,8.94710286 79.5010742,9.06787109 C79.9773112,9.18863932 80.3954427,9.24902344 80.7554688,9.24902344 C81.1610677,9.24902344 81.4515951,9.18863932 81.6270508,9.06787109 C81.8025065,8.94710286 81.8902344,8.78873698 81.8902344,8.59277344 C81.8902344,8.46516927 81.8549154,8.35009766 81.7842773,8.24755859 C81.7136393,8.14501953 81.5621094,8.02880859 81.3296875,7.89892578 C81.0972656,7.76904297 80.7326823,7.59928385 80.2359375,7.38964844 C79.7574219,7.1891276 79.3643555,6.98632812 79.0567383,6.78125 C78.7491211,6.57617188 78.5212565,6.33349609 78.3731445,6.05322266 C78.2250326,5.77294922 78.1509766,5.41634115 78.1509766,4.98339844 C78.1509766,4.27701823 78.4255534,3.74495443 78.974707,3.38720703 C79.5238607,3.02945964 80.258724,2.85058594 81.1792969,2.85058594 C81.6532552,2.85058594 82.1055664,2.8984375 82.5362305,2.99414062 C82.9668945,3.08984375 83.4100911,3.24251302 83.8658203,3.45214844 L83.2369141,4.95605469 C82.8586589,4.79199219 82.5020508,4.65755208 82.1670898,4.55273438 C81.8321289,4.44791667 81.4914714,4.39550781 81.1451172,4.39550781 C80.8397786,4.39550781 80.6096354,4.43652344 80.4546875,4.51855469 C80.2997396,4.60058594 80.2222656,4.72591146 80.2222656,4.89453125 C80.2222656,5.01757812 80.2621419,5.12695312 80.3418945,5.22265625 C80.4216471,5.31835938 80.5765951,5.42431641 80.8067383,5.54052734 C81.0368815,5.65673828 81.3752604,5.80598958 81.821875,5.98828125 C82.2548177,6.16601562 82.6307943,6.35172526 82.9498047,6.54541016 C83.2688151,6.73909505 83.5149089,6.97835286 83.6880859,7.26318359 C83.861263,7.54801432 83.9478516,7.91601562 83.9478516,8.3671875 Z" id="Path"></path>
                        <path d="M87.3597656,0 L87.3597656,4.7578125 C87.3597656,5.04492188 87.3483724,5.33203125 87.3255859,5.61914062 C87.3027995,5.90625 87.2777344,6.19335938 87.2503906,6.48046875 L87.2777344,6.48046875 C87.4190104,6.27994792 87.5637044,6.08170573 87.7118164,5.88574219 C87.8599284,5.68977865 88.0182943,5.50065104 88.1869141,5.31835938 L90.3265625,2.99414062 L92.678125,2.99414062 L89.6429687,6.30957031 L92.8626953,10.6367188 L90.4564453,10.6367188 L88.2552734,7.54003906 L87.3597656,8.2578125 L87.3597656,10.6367188 L85.2748047,10.6367188 L85.2748047,0 L87.3597656,0 Z" id="Path"></path>
                        <path d="M96.8761719,9.11230469 C97.1040365,9.11230469 97.3262044,9.08951823 97.5426758,9.04394531 C97.7591471,8.9983724 97.9744792,8.94140625 98.1886719,8.87304688 L98.1886719,10.4248047 C97.9653646,10.5250651 97.6885091,10.6082357 97.3581055,10.6743164 C97.0277018,10.7403971 96.6665365,10.7734375 96.2746094,10.7734375 C95.8188802,10.7734375 95.4098633,10.6993815 95.0475586,10.5512695 C94.6852539,10.4031576 94.4004232,10.1456706 94.1930664,9.77880859 C93.9857096,9.41194661 93.8820313,8.90039062 93.8820313,8.24414062 L93.8820313,4.55957031 L92.8839844,4.55957031 L92.8839844,3.67773438 L94.0324219,2.98046875 L94.6339844,1.3671875 L95.9669922,1.3671875 L95.9669922,2.99414062 L98.1066406,2.99414062 L98.1066406,4.55957031 L95.9669922,4.55957031 L95.9669922,8.24414062 C95.9669922,8.53580729 96.0501628,8.75341797 96.2165039,8.89697266 C96.3828451,9.04052734 96.6027344,9.11230469 96.8761719,9.11230469 Z" id="Path"></path>
                        <path d="M106.378906,6.80175781 C106.378906,7.43977865 106.293457,8.00488281 106.122559,8.49707031 C105.95166,8.98925781 105.703288,9.40511068 105.377441,9.74462891 C105.051595,10.0841471 104.659668,10.3404948 104.20166,10.5136719 C103.743652,10.686849 103.227539,10.7734375 102.65332,10.7734375 C102.11556,10.7734375 101.622233,10.686849 101.17334,10.5136719 C100.724447,10.3404948 100.334798,10.0841471 100.004395,9.74462891 C99.6739909,9.40511068 99.4187826,8.98925781 99.2387695,8.49707031 C99.0587565,8.00488281 98.96875,7.43977865 98.96875,6.80175781 C98.96875,5.95410156 99.1191406,5.23632812 99.4199219,4.6484375 C99.7207031,4.06054688 100.149089,3.61393229 100.705078,3.30859375 C101.261068,3.00325521 101.924154,2.85058594 102.694336,2.85058594 C103.409831,2.85058594 104.044434,3.00325521 104.598145,3.30859375 C105.151855,3.61393229 105.587077,4.06054688 105.903809,4.6484375 C106.22054,5.23632812 106.378906,5.95410156 106.378906,6.80175781 Z M101.094727,6.80175781 C101.094727,7.3030599 101.149414,7.72460938 101.258789,8.06640625 C101.368164,8.40820312 101.539062,8.6656901 101.771484,8.83886719 C102.003906,9.01204427 102.306966,9.09863281 102.680664,9.09863281 C103.049805,9.09863281 103.349447,9.01204427 103.57959,8.83886719 C103.809733,8.6656901 103.978353,8.40820312 104.085449,8.06640625 C104.192546,7.72460938 104.246094,7.3030599 104.246094,6.80175781 C104.246094,6.29589844 104.192546,5.87548828 104.085449,5.54052734 C103.978353,5.20556641 103.808594,4.95377604 103.576172,4.78515625 C103.34375,4.61653646 103.04069,4.53222656 102.666992,4.53222656 C102.11556,4.53222656 101.715658,4.72135417 101.467285,5.09960938 C101.218913,5.47786458 101.094727,6.0452474 101.094727,6.80175781 Z" id="Shape"></path>
                        <path d="M112.053516,2.85058594 C112.914844,2.85058594 113.61097,3.18554688 114.141895,3.85546875 C114.672819,4.52539062 114.938281,5.50748698 114.938281,6.80175781 C114.938281,7.66764323 114.812956,8.39567057 114.562305,8.98583984 C114.311654,9.57600911 113.965299,10.0214844 113.523242,10.3222656 C113.081185,10.6230469 112.573047,10.7734375 111.998828,10.7734375 C111.629687,10.7734375 111.312956,10.7267253 111.048633,10.6333008 C110.78431,10.5398763 110.558724,10.4191081 110.371875,10.2709961 C110.185026,10.1228841 110.023242,9.96451823 109.886523,9.79589844 L109.777148,9.79589844 C109.813607,9.9781901 109.840951,10.1650391 109.85918,10.3564453 C109.877409,10.5478516 109.886523,10.7347005 109.886523,10.9169922 L109.886523,14 L107.801562,14 L107.801562,2.99414062 L109.496875,2.99414062 L109.79082,3.98535156 L109.886523,3.98535156 C110.023242,3.78027344 110.189583,3.59114583 110.385547,3.41796875 C110.58151,3.24479167 110.81735,3.10693359 111.093066,3.00439453 C111.368783,2.90185547 111.688932,2.85058594 112.053516,2.85058594 Z M111.383594,4.51855469 C111.01901,4.51855469 110.729622,4.59375 110.51543,4.74414062 C110.301237,4.89453125 110.14515,5.12011719 110.047168,5.42089844 C109.949186,5.72167969 109.895638,6.10221354 109.886523,6.5625 L109.886523,6.78808594 C109.886523,7.28027344 109.933236,7.69726562 110.02666,8.0390625 C110.120085,8.38085938 110.277311,8.640625 110.49834,8.81835938 C110.719368,8.99609375 111.023568,9.08496094 111.410937,9.08496094 C111.729948,9.08496094 111.991992,8.99609375 112.19707,8.81835938 C112.402148,8.640625 112.555957,8.37972005 112.658496,8.03564453 C112.761035,7.69156901 112.812305,7.27115885 112.812305,6.77441406 C112.812305,6.02701823 112.696094,5.46419271 112.463672,5.0859375 C112.23125,4.70768229 111.871224,4.51855469 111.383594,4.51855469 Z" id="Shape"></path>
                        <path d="M13.7490234,28.6337891 C13.7490234,30.4026693 13.4106445,31.8797201 12.7338867,33.0649414 C12.0571289,34.2501628 11.0777995,35.1417643 9.79589844,35.7397461 C8.5139974,36.3377279 6.97070312,36.6367188 5.16601562,36.6367188 L0.71875,36.6367188 L0.71875,20.9316406 L5.64941406,20.9316406 C7.29654948,20.9316406 8.72526042,21.2234701 9.93554688,21.8071289 C11.1458333,22.3907878 12.0839844,23.2537435 12.75,24.3959961 C13.4160156,25.5382487 13.7490234,26.9508464 13.7490234,28.6337891 Z M10.2900391,28.7197266 C10.2900391,27.5595703 10.1199544,26.605306 9.77978516,25.8569336 C9.43961589,25.1085612 8.9383138,24.5553385 8.27587891,24.1972656 C7.61344401,23.8391927 6.7952474,23.6601562 5.82128906,23.6601562 L4.04882812,23.6601562 L4.04882812,33.8867188 L5.47753906,33.8867188 C7.1031901,33.8867188 8.3116862,33.4534505 9.10302734,32.5869141 C9.89436849,31.7203776 10.2900391,30.4313151 10.2900391,28.7197266 Z" id="Shape"></path>
                        <path d="M21.2268136,24.4013672 C22.3368397,24.4013672 23.2928943,24.6144206 24.0949777,25.0405273 C24.897061,25.4666341 25.5165272,26.0843099 25.9533761,26.8935547 C26.3902251,27.7027995 26.6086496,28.6910807 26.6086496,29.8583984 L26.6086496,31.4482422 L18.8635324,31.4482422 C18.8993397,32.3720703 19.1768462,33.097168 19.6960519,33.6235352 C20.2152576,34.1499023 20.9367746,34.4130859 21.8606027,34.4130859 C22.6268787,34.4130859 23.3287016,34.3343099 23.9660714,34.1767578 C24.6034412,34.0192057 25.2587147,33.7828776 25.9318917,33.4677734 L25.9318917,36.0029297 C25.3374907,36.2965495 24.7162342,36.5113932 24.0681222,36.6474609 C23.4200102,36.7835286 22.6340402,36.8515625 21.7102121,36.8515625 C20.5070871,36.8515625 19.4418201,36.6295573 18.5144113,36.1855469 C17.5870024,35.7415365 16.8601144,35.0647786 16.3337472,34.1552734 C15.80738,33.2457682 15.5441964,32.0999349 15.5441964,30.7177734 C15.5441964,29.3141276 15.7823149,28.1450195 16.2585519,27.2104492 C16.7347889,26.2758789 17.3990141,25.574056 18.2512277,25.1049805 C19.1034412,24.6359049 20.0953032,24.4013672 21.2268136,24.4013672 Z M21.248298,26.7324219 C20.6109282,26.7324219 20.0827706,26.9365234 19.6638253,27.3447266 C19.24488,27.7529297 19.0031808,28.3938802 18.9387277,29.2675781 L23.5363839,29.2675781 C23.5292225,28.780599 23.4414946,28.3473307 23.2732003,27.9677734 C23.1049061,27.5882161 22.854255,27.2874349 22.5212472,27.0654297 C22.1882394,26.8434245 21.763923,26.7324219 21.248298,26.7324219 Z" id="Shape"></path>
                        <path d="M31.6587054,36.6367188 L27.0825335,24.6269531 L30.5092913,24.6269531 L32.8296038,31.4697266 C32.95851,31.8707682 33.0605608,32.2932943 33.1357561,32.7373047 C33.2109515,33.1813151 33.262872,33.578776 33.2915179,33.9296875 L33.3774554,33.9296875 C33.3989397,33.5501302 33.4508603,33.1455078 33.5332171,32.7158203 C33.6155738,32.2861328 33.7247861,31.8707682 33.8608538,31.4697266 L36.1704241,24.6269531 L39.5971819,24.6269531 L35.02101,36.6367188 L31.6587054,36.6367188 Z" id="Path"></path>
                        <path d="M55.3571987,28.7626953 C55.3571987,29.9729818 55.206808,31.074056 54.9060268,32.065918 C54.6052455,33.0577799 54.1487026,33.9117839 53.5363979,34.6279297 C52.9240932,35.3440755 52.1488653,35.8937174 51.2107143,36.2768555 C50.2725632,36.6599935 49.1625372,36.8515625 47.8806362,36.8515625 C46.5987351,36.8515625 45.4887091,36.6599935 44.550558,36.2768555 C43.612407,35.8937174 42.8371791,35.3440755 42.2248744,34.6279297 C41.6125698,33.9117839 41.1560268,33.0559896 40.8552455,32.0605469 C40.5544643,31.0651042 40.4040737,29.9586589 40.4040737,28.7412109 C40.4040737,27.1155599 40.670838,25.6993815 41.2043666,24.4926758 C41.7378953,23.2859701 42.5596726,22.3496094 43.6696987,21.6835938 C44.7797247,21.0175781 46.190532,20.6845703 47.9021205,20.6845703 C49.6065476,20.6845703 51.0084031,21.0175781 52.1076869,21.6835938 C53.2069708,22.3496094 54.023377,23.2877604 54.5569057,24.4980469 C55.0904343,25.7083333 55.3571987,27.1298828 55.3571987,28.7626953 Z M43.8952846,28.7626953 C43.8952846,29.8583984 44.0331427,30.8019206 44.3088588,31.5932617 C44.584575,32.3846029 45.0160528,32.9933268 45.6032924,33.4194336 C46.190532,33.8455404 46.9496466,34.0585938 47.8806362,34.0585938 C48.8259487,34.0585938 49.5922247,33.8455404 50.1794643,33.4194336 C50.7667039,32.9933268 51.194601,32.3846029 51.4631557,31.5932617 C51.7317104,30.8019206 51.8659877,29.8583984 51.8659877,28.7626953 C51.8659877,27.1155599 51.558045,25.8193359 50.9421596,24.8740234 C50.3262742,23.9287109 49.3129278,23.4560547 47.9021205,23.4560547 C46.9639695,23.4560547 46.1994838,23.6691081 45.6086635,24.0952148 C45.0178432,24.5213216 44.584575,25.1300456 44.3088588,25.9213867 C44.0331427,26.7127279 43.8952846,27.6598307 43.8952846,28.7626953 Z" id="Shape"></path>
                        <path d="M64.564481,24.4013672 C65.9179967,24.4013672 67.0119094,24.9277344 67.8462193,25.9804688 C68.6805292,27.0332031 69.0976842,28.5764974 69.0976842,30.6103516 C69.0976842,31.9710286 68.900744,33.1150716 68.5068638,34.0424805 C68.1129836,34.9698893 67.5687128,35.6699219 66.8740513,36.1425781 C66.1793899,36.6152344 65.3808873,36.8515625 64.4785435,36.8515625 C63.8984654,36.8515625 63.400744,36.7781576 62.9853795,36.6313477 C62.5700149,36.4845378 62.2155227,36.2947591 61.9219029,36.0620117 C61.6282831,35.8292643 61.3740513,35.5804036 61.1592076,35.3154297 L60.9873326,35.3154297 C61.0446243,35.601888 61.087593,35.8955078 61.1162388,36.1962891 C61.1448847,36.4970703 61.1592076,36.7906901 61.1592076,37.0771484 L61.1592076,41.921875 L57.8828404,41.921875 L57.8828404,24.6269531 L60.5469029,24.6269531 L61.008817,26.1845703 L61.1592076,26.1845703 C61.3740513,25.8623047 61.6354446,25.5651042 61.9433873,25.2929688 C62.25133,25.0208333 62.6219355,24.8041992 63.0552037,24.6430664 C63.4884719,24.4819336 63.9915644,24.4013672 64.564481,24.4013672 Z M63.5117467,27.0224609 C62.93883,27.0224609 62.4840774,27.140625 62.1474888,27.3769531 C61.8109003,27.6132812 61.5656203,27.9677734 61.411649,28.4404297 C61.2576776,28.9130859 61.1735305,29.5110677 61.1592076,30.234375 L61.1592076,30.5888672 C61.1592076,31.3623047 61.2326125,32.0175781 61.3794224,32.5546875 C61.5262323,33.0917969 61.7733026,33.5 62.1206334,33.7792969 C62.4679641,34.0585938 62.9459914,34.1982422 63.5547154,34.1982422 C64.0560175,34.1982422 64.4678013,34.0585938 64.790067,33.7792969 C65.1123326,33.5 65.3540318,33.0900065 65.5151646,32.5493164 C65.6762974,32.0086263 65.7568638,31.3479818 65.7568638,30.5673828 C65.7568638,29.3929036 65.5742467,28.5084635 65.2090123,27.9140625 C64.8437779,27.3196615 64.2780227,27.0224609 63.5117467,27.0224609 Z" id="Shape"></path>
                        <path d="M79.7121931,33.0703125 C79.7121931,33.8867188 79.5206241,34.5760091 79.137486,35.1381836 C78.754348,35.7003581 78.1832217,36.1264648 77.4241071,36.4165039 C76.6649926,36.706543 75.7196801,36.8515625 74.5881696,36.8515625 C73.750279,36.8515625 73.0323428,36.7978516 72.434361,36.6904297 C71.8363793,36.5830078 71.2330264,36.4039714 70.6243025,36.1533203 L70.6243025,33.4462891 C71.2759952,33.7399089 71.9760277,33.9816081 72.7244001,34.1713867 C73.4727725,34.3611654 74.1298363,34.4560547 74.6955915,34.4560547 C75.3329613,34.4560547 75.7895043,34.3611654 76.0652204,34.1713867 C76.3409366,33.9816081 76.4787946,33.7327474 76.4787946,33.4248047 C76.4787946,33.2242839 76.4232933,33.043457 76.3122907,32.8823242 C76.2012881,32.7211914 75.9631696,32.5385742 75.5979353,32.3344727 C75.2327009,32.1303711 74.6597842,31.8636068 73.8791853,31.5341797 C73.1272321,31.2190755 72.5095564,30.9003906 72.0261579,30.578125 C71.5427595,30.2558594 71.1846866,29.8745117 70.9519392,29.434082 C70.7191918,28.9936523 70.6028181,28.4332682 70.6028181,27.7529297 C70.6028181,26.6429036 71.0342959,25.8068034 71.8972517,25.2446289 C72.7602074,24.6824544 73.9149926,24.4013672 75.3616071,24.4013672 C76.1063988,24.4013672 76.8171735,24.4765625 77.4939314,24.6269531 C78.1706892,24.7773438 78.867141,25.0172526 79.5832868,25.3466797 L78.5950056,27.7099609 C78.0006045,27.4521484 77.4402204,27.2408854 76.9138532,27.0761719 C76.387486,26.9114583 75.852167,26.8291016 75.3078962,26.8291016 C74.8280785,26.8291016 74.4664249,26.8935547 74.2229353,27.0224609 C73.9794457,27.1513672 73.8577009,27.3483073 73.8577009,27.6132812 C73.8577009,27.8066406 73.9203637,27.9785156 74.0456892,28.1289062 C74.1710147,28.2792969 74.4145043,28.4458008 74.7761579,28.628418 C75.1378116,28.8110352 75.6695499,29.0455729 76.3713728,29.3320312 C77.0517113,29.6113281 77.6425316,29.9031576 78.1438337,30.2075195 C78.6451358,30.5118815 79.0318545,30.8878581 79.30399,31.3354492 C79.5761254,31.7830404 79.7121931,32.3613281 79.7121931,33.0703125 Z" id="Path"></path>
                        <path d="M96.5691406,32.2753906 C96.5691406,33.2063802 96.3435547,34.015625 95.8923828,34.703125 C95.4412109,35.390625 94.7841471,35.9205729 93.9211914,36.2929688 C93.0582357,36.6653646 92.0108724,36.8515625 90.7791016,36.8515625 C90.2348307,36.8515625 89.7030924,36.8157552 89.1838867,36.7441406 C88.664681,36.672526 88.1669596,36.5668945 87.6907227,36.4272461 C87.2144857,36.2875977 86.7615234,36.1139323 86.3318359,35.90625 L86.3318359,32.8125 C87.0766276,33.1419271 87.8500651,33.4391276 88.6521484,33.7041016 C89.4542318,33.9690755 90.2491536,34.1015625 91.0369141,34.1015625 C91.5811849,34.1015625 92.0198242,34.0299479 92.352832,33.8867188 C92.6858398,33.7434896 92.9275391,33.5465495 93.0779297,33.2958984 C93.2283203,33.0452474 93.3035156,32.7587891 93.3035156,32.4365234 C93.3035156,32.0426432 93.1710286,31.7060547 92.9060547,31.4267578 C92.6410807,31.1474609 92.2776367,30.8860677 91.8157227,30.6425781 C91.3538086,30.3990885 90.8328125,30.1376953 90.2527344,29.8583984 C89.8875,29.6865234 89.4900391,29.4770508 89.0603516,29.2299805 C88.6306641,28.9829102 88.2224609,28.6803385 87.8357422,28.3222656 C87.4490234,27.9641927 87.1321289,27.5291341 86.8850586,27.0170898 C86.6379883,26.5050456 86.5144531,25.8909505 86.5144531,25.1748047 C86.5144531,24.2366536 86.7292969,23.4345703 87.1589844,22.7685547 C87.5886719,22.1025391 88.2027669,21.5922852 89.0012695,21.237793 C89.7997721,20.8833008 90.7432943,20.7060547 91.8318359,20.7060547 C92.6482422,20.7060547 93.4270508,20.800944 94.1682617,20.9907227 C94.9094727,21.1805013 95.6847005,21.4544271 96.4939453,21.8125 L95.4197266,24.4013672 C94.6964193,24.1077474 94.0483073,23.8803711 93.4753906,23.7192383 C92.902474,23.5581055 92.3188151,23.4775391 91.7244141,23.4775391 C91.3090495,23.4775391 90.9545573,23.5437826 90.6609375,23.6762695 C90.3673177,23.8087565 90.1453125,23.9949544 89.9949219,24.2348633 C89.8445312,24.4747721 89.7693359,24.7522786 89.7693359,25.0673828 C89.7693359,25.4397786 89.8785482,25.7530924 90.0969727,26.0073242 C90.3153971,26.261556 90.6448242,26.5068359 91.0852539,26.7431641 C91.5256836,26.9794922 92.0753255,27.2552083 92.7341797,27.5703125 C93.536263,27.9498698 94.2219727,28.3455404 94.7913086,28.7573242 C95.3606445,29.1691081 95.7992839,29.6525065 96.1072266,30.2075195 C96.4151693,30.7625326 96.5691406,31.4518229 96.5691406,32.2753906 Z" id="Path"></path>
                        <path d="M103.638728,24.4013672 C104.748754,24.4013672 105.704808,24.6144206 106.506892,25.0405273 C107.308975,25.4666341 107.928441,26.0843099 108.36529,26.8935547 C108.802139,27.7027995 109.020564,28.6910807 109.020564,29.8583984 L109.020564,31.4482422 L101.275446,31.4482422 C101.311254,32.3720703 101.58876,33.097168 102.107966,33.6235352 C102.627172,34.1499023 103.348689,34.4130859 104.272517,34.4130859 C105.038793,34.4130859 105.740616,34.3343099 106.377985,34.1767578 C107.015355,34.0192057 107.670629,33.7828776 108.343806,33.4677734 L108.343806,36.0029297 C107.749405,36.2965495 107.128148,36.5113932 106.480036,36.6474609 C105.831924,36.7835286 105.045954,36.8515625 104.122126,36.8515625 C102.919001,36.8515625 101.853734,36.6295573 100.926325,36.1855469 C99.9989165,35.7415365 99.2720285,35.0647786 98.7456613,34.1552734 C98.2192941,33.2457682 97.9561105,32.0999349 97.9561105,30.7177734 C97.9561105,29.3141276 98.194229,28.1450195 98.670466,27.2104492 C99.1467029,26.2758789 99.8109282,25.574056 100.663142,25.1049805 C101.515355,24.6359049 102.507217,24.4013672 103.638728,24.4013672 Z M103.660212,26.7324219 C103.022842,26.7324219 102.494685,26.9365234 102.075739,27.3447266 C101.656794,27.7529297 101.415095,28.3938802 101.350642,29.2675781 L105.948298,29.2675781 C105.941137,28.780599 105.853409,28.3473307 105.685114,27.9677734 C105.51682,27.5882161 105.266169,27.2874349 104.933161,27.0654297 C104.600153,26.8434245 104.175837,26.7324219 103.660212,26.7324219 Z" id="Shape"></path>
                        <path d="M117.916323,24.4013672 C118.081036,24.4013672 118.272605,24.410319 118.49103,24.4282227 C118.709454,24.4461263 118.8867,24.469401 119.022768,24.4980469 L118.775698,27.5703125 C118.668276,27.5345052 118.516095,27.5076497 118.319155,27.4897461 C118.122214,27.4718424 117.95213,27.4628906 117.808901,27.4628906 C117.386375,27.4628906 116.976381,27.5166016 116.57892,27.6240234 C116.181459,27.7314453 115.825177,27.9051107 115.510073,28.1450195 C115.194968,28.3849284 114.946108,28.7000326 114.763491,29.090332 C114.580873,29.4806315 114.489565,29.9586589 114.489565,30.5244141 L114.489565,36.6367188 L111.213198,36.6367188 L111.213198,24.6269531 L113.694643,24.6269531 L114.178041,26.6464844 L114.339174,26.6464844 C114.575502,26.2382812 114.870912,25.8640951 115.225405,25.5239258 C115.579897,25.1837565 115.984519,24.9116211 116.439272,24.7075195 C116.894024,24.503418 117.386375,24.4013672 117.916323,24.4013672 Z" id="Path"></path>
                        <path d="M123.589425,36.6367188 L119.013253,24.6269531 L122.440011,24.6269531 L124.760324,31.4697266 C124.88923,31.8707682 124.991281,32.2932943 125.066476,32.7373047 C125.141671,33.1813151 125.193592,33.578776 125.222238,33.9296875 L125.308175,33.9296875 C125.32966,33.5501302 125.38158,33.1455078 125.463937,32.7158203 C125.546294,32.2861328 125.655506,31.8707682 125.791574,31.4697266 L128.101144,24.6269531 L131.527902,24.6269531 L126.95173,36.6367188 L123.589425,36.6367188 Z" id="Path"></path>
                        <path d="M136.05159,24.6269531 L136.05159,36.6367188 L132.775223,36.6367188 L132.775223,24.6269531 L136.05159,24.6269531 Z M134.418778,19.921875 C134.905757,19.921875 135.324702,20.034668 135.675614,20.2602539 C136.026525,20.4858398 136.201981,20.9065755 136.201981,21.5224609 C136.201981,22.1311849 136.026525,22.5519206 135.675614,22.784668 C135.324702,23.0174154 134.905757,23.1337891 134.418778,23.1337891 C133.924637,23.1337891 133.503902,23.0174154 133.156571,22.784668 C132.80924,22.5519206 132.635575,22.1311849 132.635575,21.5224609 C132.635575,20.9065755 132.80924,20.4858398 133.156571,20.2602539 C133.503902,20.034668 133.924637,19.921875 134.418778,19.921875 Z" id="Shape"></path>
                        <path d="M143.894615,36.8515625 C142.705813,36.8515625 141.692467,36.6349284 140.854576,36.2016602 C140.016685,35.7683919 139.379315,35.0970052 138.942467,34.1875 C138.505618,33.2779948 138.287193,32.1142578 138.287193,30.6962891 C138.287193,29.2281901 138.536054,28.0304362 139.033775,27.1030273 C139.531496,26.1756185 140.222577,25.4934896 141.107017,25.0566406 C141.991457,24.6197917 143.017336,24.4013672 144.184654,24.4013672 C145.015383,24.4013672 145.733319,24.4819336 146.338463,24.6430664 C146.943606,24.8041992 147.471763,24.9957682 147.922935,25.2177734 L146.956138,27.7529297 C146.440513,27.5452474 145.960696,27.3751628 145.516685,27.2426758 C145.072675,27.1101888 144.628664,27.0439453 144.184654,27.0439453 C143.611737,27.0439453 143.1355,27.1782227 142.755943,27.4467773 C142.376386,27.715332 142.093508,28.1181641 141.90731,28.6552734 C141.721112,29.1923828 141.628013,29.8655599 141.628013,30.6748047 C141.628013,31.4697266 141.728274,32.1285807 141.928795,32.6513672 C142.129315,33.1741536 142.419355,33.5626628 142.798912,33.8168945 C143.178469,34.0711263 143.640383,34.1982422 144.184654,34.1982422 C144.864993,34.1982422 145.470136,34.1069336 146.000084,33.9243164 C146.530032,33.7416992 147.045657,33.4856771 147.546959,33.15625 L147.546959,35.9599609 C147.045657,36.2750651 146.52108,36.5024414 145.973228,36.6420898 C145.425377,36.7817383 144.732506,36.8515625 143.894615,36.8515625 Z" id="Path"></path>
                        <path d="M154.809905,24.4013672 C155.919931,24.4013672 156.875986,24.6144206 157.678069,25.0405273 C158.480153,25.4666341 159.099619,26.0843099 159.536468,26.8935547 C159.973317,27.7027995 160.191741,28.6910807 160.191741,29.8583984 L160.191741,31.4482422 L152.446624,31.4482422 C152.482431,32.3720703 152.759938,33.097168 153.279143,33.6235352 C153.798349,34.1499023 154.519866,34.4130859 155.443694,34.4130859 C156.20997,34.4130859 156.911793,34.3343099 157.549163,34.1767578 C158.186533,34.0192057 158.841806,33.7828776 159.514983,33.4677734 L159.514983,36.0029297 C158.920582,36.2965495 158.299326,36.5113932 157.651214,36.6474609 C157.003102,36.7835286 156.217132,36.8515625 155.293304,36.8515625 C154.090179,36.8515625 153.024912,36.6295573 152.097503,36.1855469 C151.170094,35.7415365 150.443206,35.0647786 149.916839,34.1552734 C149.390472,33.2457682 149.127288,32.0999349 149.127288,30.7177734 C149.127288,29.3141276 149.365406,28.1450195 149.841643,27.2104492 C150.31788,26.2758789 150.982106,25.574056 151.834319,25.1049805 C152.686533,24.6359049 153.678395,24.4013672 154.809905,24.4013672 Z M154.83139,26.7324219 C154.19402,26.7324219 153.665862,26.9365234 153.246917,27.3447266 C152.827972,27.7529297 152.586272,28.3938802 152.521819,29.2675781 L157.119475,29.2675781 C157.112314,28.780599 157.024586,28.3473307 156.856292,27.9677734 C156.687998,27.5882161 156.437347,27.2874349 156.104339,27.0654297 C155.771331,26.8434245 155.347015,26.7324219 154.83139,26.7324219 Z" id="Shape"></path>
                    </g>
                    <path d="M2.5,0.63671875 C3.88071187,0.63671875 5,1.75600688 5,3.13671875 L5,35.1367188 C5,36.5174306 3.88071187,37.6367188 2.5,37.6367188 C1.11928813,37.6367188 0,36.5174306 0,35.1367188 L0,3.13671875 C0,1.75600688 1.11928813,0.63671875 2.5,0.63671875 Z M12.5,0.63671875 C13.8807119,0.63671875 15,1.75600688 15,3.13671875 L15,35.1367188 C15,36.5174306 13.8807119,37.6367188 12.5,37.6367188 C11.1192881,37.6367188 10,36.5174306 10,35.1367188 L10,3.13671875 C10,1.75600688 11.1192881,0.63671875 12.5,0.63671875 Z" id="Combined-Shape" fill="#D82131"></path>
                </g>
            </g>
        </g>
    </g>
</svg>