<?xml version="1.0" encoding="UTF-8"?>
<svg width="39px" height="30px" viewBox="0 0 39 30" version="1.1" xmlns="http://www.w3.org/2000/svg" xmlns:xlink="http://www.w3.org/1999/xlink">
    <title>icon_discort</title>
    <g id="GitPage" stroke="none" stroke-width="1" fill="none" fill-rule="evenodd">
        <g id="DevOpsWeb_Main_XL-1200" transform="translate(-111, -1283)" fill="#5865F2" fill-rule="nonzero">
            <path d="M144.036713,1285.51245 C141.474373,1284.32182 138.769341,1283.47714 135.990717,1283 C135.61049,1283.68988 135.266452,1284.39967 134.960045,1285.1264 C132.000276,1284.67373 128.990384,1284.67373 126.030615,1285.1264 C125.724047,1284.39974 125.380014,1283.68996 124.999942,1283 C122.219538,1283.48117 119.512726,1284.32785 116.947811,1285.51868 C111.855797,1293.16501 110.475432,1300.62142 111.165614,1307.97198 L111.165614,1307.97198 C114.147626,1310.20815 117.485347,1311.9088 121.033693,1313 C121.832674,1311.90934 122.539673,1310.75228 123.147185,1309.5411 C121.993303,1309.10369 120.8796,1308.56404 119.818971,1307.92839 C120.098112,1307.72291 120.371117,1307.51121 120.63492,1307.30573 C126.883361,1310.28814 134.116501,1310.28814 140.364942,1307.30573 C140.631812,1307.52677 140.904818,1307.73848 141.180891,1307.92839 C140.118212,1308.56507 139.002473,1309.10576 137.846542,1309.54421 C138.453309,1310.75483 139.160351,1311.91092 139.960035,1313 C143.511409,1311.91318 146.851691,1310.21334 149.834248,1307.97509 L149.834248,1307.97509 C150.644062,1299.45081 148.450815,1292.06289 144.036713,1285.51245 Z M124.501264,1303 C122.583978,1303 121,1301.20999 121,1299.00786 C121,1296.80574 122.528936,1295 124.495148,1295 C126.46136,1295 128.033107,1296.80574 127.99947,1299.00786 C127.965833,1301.20999 126.455244,1303 124.501264,1303 Z M137.501263,1303 C135.579241,1303 134,1301.20999 134,1299.00786 C134,1296.80574 135.530272,1295 137.501263,1295 C139.472254,1295 141.033131,1296.80574 140.999465,1299.00786 C140.9658,1301.20999 139.456951,1303 137.501263,1303 Z" id="icon_discort"></path>
        </g>
    </g>
</svg>