<?xml version="1.0" encoding="UTF-8"?>
<svg width="33px" height="32.9999993px" viewBox="0 0 33 32.9999993" version="1.1" xmlns="http://www.w3.org/2000/svg" xmlns:xlink="http://www.w3.org/1999/xlink">
    <title>icon_feedback</title>
    <g id="GitPage" stroke="none" stroke-width="1" fill="none" fill-rule="evenodd">
        <g id="DevOpsWeb_Main_XL-1200" transform="translate(-815, -1280)" fill="#303236">
            <path d="M831.5,1313 C831.295668,1313 831.092204,1312.99629 830.889671,1312.98892 C830.875932,1312.98842 830.862298,1312.98791 830.848669,1312.98738 C830.781564,1312.98478 830.71452,1312.98177 830.647581,1312.97836 C830.584842,1312.97517 830.522172,1312.97162 830.459597,1312.96773 C830.425602,1312.96562 830.391588,1312.96339 830.357602,1312.96107 C830.275312,1312.95544 830.193321,1312.94922 830.1115,1312.9424 C830.077905,1312.93961 830.04425,1312.9367 830.010625,1312.93369 C829.92096,1312.92567 829.831492,1312.91693 829.742237,1312.90748 C829.720403,1312.90516 829.698077,1312.90275 829.675765,1312.9003 C829.592974,1312.89119 829.511033,1312.88155 829.429278,1312.87132 C829.390149,1312.86642 829.351127,1312.86139 829.312149,1312.85623 C829.25893,1312.84918 829.205187,1312.84179 829.151528,1312.83414 C828.951072,1312.80557 828.752462,1312.77352 828.555071,1312.73795 C828.364911,1312.70369 828.17587,1312.66617 827.988023,1312.62545 C827.960139,1312.61941 827.931451,1312.61311 827.90279,1312.60674 C827.816549,1312.58756 827.731249,1312.56787 827.646204,1312.54752 C827.617665,1312.54069 827.588614,1312.53366 827.559593,1312.52655 C827.49098,1312.50973 827.423021,1312.49261 827.355231,1312.47508 C827.317255,1312.46525 827.279276,1312.45528 827.241351,1312.44518 C827.178121,1312.42833 827.114834,1312.41107 827.051699,1312.39343 C826.901778,1312.35156 826.753016,1312.30771 826.605143,1312.26184 C826.392077,1312.19574 826.180856,1312.12545 825.97158,1312.05104 C825.939519,1312.03965 825.90742,1312.02812 825.875367,1312.0165 C825.804703,1311.99088 825.734136,1311.96474 825.663798,1311.93814 C825.625077,1311.92349 825.587066,1311.90895 825.549122,1311.89427 C825.48838,1311.87078 825.42734,1311.84674 825.366479,1311.82236 C825.315793,1311.80205 825.265135,1311.78146 825.214603,1311.76063 C825.173668,1311.74375 825.133292,1311.72691 825.092998,1311.70991 C825.034037,1311.68505 824.974671,1311.6596 824.915486,1311.63381 C824.852184,1311.60623 824.789569,1311.57848 824.727162,1311.55035 C824.705852,1311.54075 824.684535,1311.53108 824.663242,1311.52138 C824.500764,1311.44731 824.339558,1311.37061 824.179817,1311.29141 C823.989175,1311.19688 823.800471,1311.0987 823.613947,1310.99702 C823.571285,1310.97376 823.52842,1310.95015 823.485671,1310.92635 C823.449013,1310.90594 823.412974,1310.88569 823.377019,1310.86532 C823.318082,1310.83192 823.259046,1310.79798 823.200241,1310.76369 C823.1724,1310.74746 823.144373,1310.731 823.116398,1310.71447 C822.948248,1310.61508 822.782379,1310.51302 822.618486,1310.40814 C822.595836,1310.39364 822.573531,1310.3793 822.551263,1310.36489 C822.196779,1310.13564 821.851379,1309.89296 821.516046,1309.63773 L821.473746,1309.60543 C821.423531,1309.56695 821.373544,1309.5282 821.323787,1309.48916 C821.296509,1309.46776 821.269218,1309.44621 821.241997,1309.42458 C821.21241,1309.40106 821.183054,1309.37757 821.15378,1309.35397 C821.096792,1309.30805 821.039897,1309.26157 820.98332,1309.21472 C820.949865,1309.18702 820.916539,1309.1592 820.883324,1309.13125 C820.843802,1309.098 820.804445,1309.06457 820.765247,1309.03096 C820.718132,1308.99056 820.671153,1308.94982 820.624408,1308.90882 C820.580112,1308.86996 820.536365,1308.83117 820.492825,1308.79216 C820.46797,1308.76989 820.442701,1308.74711 820.417503,1308.72425 C820.098238,1308.43461 819.790817,1308.1331 819.495506,1307.82005 C819.464998,1307.78771 819.435115,1307.75578 819.405358,1307.72372 C819.35167,1307.6659 819.297951,1307.60721 819.244654,1307.54812 C819.223673,1307.52486 819.203482,1307.50235 819.183352,1307.47979 C819.141328,1307.43268 819.099257,1307.38497 819.057459,1307.33702 C819.03157,1307.30732 819.005888,1307.27765 818.980311,1307.24788 C818.938908,1307.1997 818.897826,1307.15133 818.857019,1307.10272 C818.824788,1307.06433 818.792579,1307.02561 818.760543,1306.98674 C818.720329,1306.93794 818.68054,1306.88909 818.641027,1306.84001 C818.520673,1306.69053 818.402875,1306.53891 818.287695,1306.38521 C818.185778,1306.24921 818.085883,1306.11154 817.988086,1305.9723 C817.955806,1305.92634 817.923694,1305.88011 817.891813,1305.83372 C817.864963,1305.79465 817.838388,1305.75562 817.811975,1305.71647 C817.724938,1305.58746 817.639656,1305.45712 817.556185,1305.32552 C817.518911,1305.26675 817.482073,1305.20785 817.445598,1305.1487 C817.420831,1305.10854 817.396415,1305.06856 817.372165,1305.02848 C817.344661,1304.98302 817.317168,1304.93707 817.289892,1304.89098 C817.230452,1304.79052 817.172321,1304.68987 817.115229,1304.58856 C816.996664,1304.37816 816.882558,1304.16484 816.773066,1303.94879 L816.75359,1303.91024 C816.728899,1303.8612 816.704445,1303.81202 816.680231,1303.7627 C816.611507,1303.62275 816.544501,1303.48122 816.479466,1303.3386 C816.472604,1303.32356 816.465618,1303.30818 816.458655,1303.29278 C815.521798,1301.22192 815,1298.9219 815,1296.5 C815,1291.75382 817.003917,1287.47569 820.211817,1284.46552 C820.260164,1284.41983 820.308538,1284.37498 820.35718,1284.33041 C820.388661,1284.3019 820.420213,1284.27322 820.451878,1284.24465 C820.628356,1284.08514 820.808112,1283.92987 820.991195,1283.77846 C821.015679,1283.75851 821.040068,1283.73846 821.064516,1283.71848 C821.314887,1283.51353 821.571611,1283.31592 821.834157,1283.12585 C822.006732,1283.00116 822.181835,1282.87947 822.359362,1282.76112 C822.39526,1282.73697 822.431298,1282.71315 822.467434,1282.68947 C822.65873,1282.56432 822.852584,1282.44294 823.049083,1282.32553 C823.085846,1282.30339 823.122421,1282.28173 823.159088,1282.26021 C823.224558,1282.22195 823.290307,1282.18396 823.356342,1282.14642 C823.393888,1282.1249 823.431921,1282.10348 823.470048,1282.0822 C823.533183,1282.04713 823.596022,1282.01259 823.659108,1281.97846 C823.852517,1281.87366 824.048158,1281.77282 824.246027,1281.67582 C824.288155,1281.65529 824.330546,1281.63473 824.373038,1281.61435 C824.427798,1281.58797 824.482515,1281.5621 824.537396,1281.53653 C824.590222,1281.51201 824.643162,1281.48768 824.696252,1281.46362 C824.77519,1281.42774 824.854483,1281.39257 824.934102,1281.358 C825.008411,1281.32582 825.083158,1281.29402 825.158184,1281.26276 C825.193617,1281.24791 825.229191,1281.23324 825.264826,1281.21868 C825.342032,1281.18723 825.419195,1281.1564 825.496642,1281.12613 C825.536096,1281.11064 825.576425,1281.09506 825.61683,1281.07964 C825.697652,1281.04886 825.777934,1281.01894 825.85851,1280.98962 C825.89029,1280.978 825.92269,1280.96633 825.955137,1280.95475 C826.064746,1280.91571 826.174476,1280.87788 826.284724,1280.84118 L826.298588,1280.83652 C826.340738,1280.82254 826.382963,1280.80871 826.425263,1280.79506 C826.485673,1280.77559 826.546334,1280.7564 826.607146,1280.73754 C826.673958,1280.71679 826.74052,1280.69661 826.807257,1280.67685 C826.855549,1280.66259 826.903591,1280.6486 826.951723,1280.63483 C826.999604,1280.6211 827.04828,1280.60741 827.097047,1280.59394 C827.334215,1280.52848 827.572785,1280.46831 827.813357,1280.41341 C827.839071,1280.40752 827.864358,1280.40182 827.889667,1280.39617 C827.992416,1280.37325 828.09607,1280.35116 828.20008,1280.33004 C828.221129,1280.32576 828.242131,1280.32154 828.263146,1280.31736 C828.367153,1280.29668 828.471441,1280.27699 828.576071,1280.25828 C828.599657,1280.25405 828.622733,1280.24998 828.645825,1280.24595 C828.768106,1280.22463 828.891584,1280.20453 829.015514,1280.18582 C829.048374,1280.18085 829.080986,1280.17603 829.113629,1280.1713 C829.187051,1280.16067 829.260771,1280.15049 829.334645,1280.14081 C829.399178,1280.13235 829.463804,1280.12426 829.528546,1280.11656 C829.626623,1280.10488 829.725441,1280.09401 829.824517,1280.08402 C829.83216,1280.08325 829.840164,1280.08245 829.84817,1280.08165 C829.980803,1280.06847 830.113442,1280.0569 830.246521,1280.0469 C830.261905,1280.04574 830.277538,1280.04459 830.293177,1280.04346 C830.394297,1280.03615 830.49537,1280.02977 830.596687,1280.02431 C830.652669,1280.02128 830.709364,1280.01851 830.766134,1280.01603 C830.840012,1280.0128 830.913581,1280.01006 830.987272,1280.00781 C831.034506,1280.00637 831.081593,1280.00514 831.128728,1280.00409 C831.250071,1280.00141 831.372374,1280.00004 831.49499,1280 C840.612698,1280 848,1287.3873 848,1296.5 C848,1305.6127 840.612698,1313 831.5,1313 Z M825,1284 C824.699282,1284 824.400949,1284.00864 824.105329,1284.02564 C819.85115,1286.55175 817,1291.19291 817,1296.5 C817,1299.71513 818.046416,1302.68585 819.817253,1305.09018 C821.404592,1305.67567 823.157534,1306 825,1306 C827.31688,1306 829.4922,1305.48715 831.376055,1304.5883 L835,1306 C834.995813,1304.54827 834.992006,1303.22827 834.988579,1302.03998 C836.868767,1300.13303 838,1297.6783 838,1295 C838,1288.92487 832.179702,1284 825,1284 Z M825.402039,1288.57645 C825.573975,1288.57645 825.720123,1288.63658 825.840485,1288.75685 C825.960846,1288.87712 826.058289,1289.05151 826.132813,1289.28003 L827.208466,1292.64001 L830.748352,1292.64001 C830.985657,1292.64001 831.180664,1292.67859 831.333374,1292.75574 C831.486084,1292.83289 831.588989,1292.95157 831.64209,1293.11179 C831.69812,1293.27493 831.686874,1293.43289 831.608353,1293.58566 C831.529831,1293.73843 831.393463,1293.88492 831.199249,1294.02512 L828.313416,1296.09293 L829.446106,1299.45575 C829.521667,1299.67932 829.545197,1299.87509 829.516693,1300.04306 C829.48819,1300.21103 829.406128,1300.34662 829.270508,1300.44983 C829.13385,1300.55591 828.98056,1300.59451 828.810638,1300.56564 C828.640717,1300.53677 828.458649,1300.4512 828.264435,1300.30893 L825.402039,1298.20605 L822.542389,1300.30893 C822.349213,1300.4512 822.167664,1300.53677 821.997742,1300.56564 C821.82782,1300.59451 821.675049,1300.55591 821.539429,1300.44983 C821.403809,1300.34662 821.321487,1300.21103 821.292465,1300.04306 C821.263443,1299.87509 821.286682,1299.67932 821.362183,1299.45575 L822.494965,1296.09293 L819.609131,1294.02512 C819.414917,1293.88492 819.27829,1293.73843 819.199249,1293.58566 C819.120209,1293.43289 819.109222,1293.27444 819.16629,1293.11032 C819.219391,1292.95004 819.322281,1292.83159 819.47496,1292.75496 C819.62764,1292.67833 819.822144,1292.64001 820.058472,1292.64001 L823.601471,1292.64001 L824.675568,1289.28003 C824.750092,1289.05151 824.847534,1288.87712 824.967896,1288.75685 C825.088257,1288.63658 825.232971,1288.57645 825.402039,1288.57645 Z" id="icon_feedback"></path>
        </g>
    </g>
</svg>