<?xml version="1.0" encoding="UTF-8"?>
<svg width="33px" height="33px" viewBox="0 0 33 33" version="1.1" xmlns="http://www.w3.org/2000/svg" xmlns:xlink="http://www.w3.org/1999/xlink">
    <title>icon_github</title>
    <g id="GitPage" stroke="none" stroke-width="1" fill="none" fill-rule="evenodd">
        <g id="DevOpsWeb_Main_XL-1200" transform="translate(-818, -650)" fill="#303236">
            <path d="M838.431993,682.528677 L838.387856,682.539332 C838.129724,682.601679 837.869223,682.657958 837.606515,682.708007 C837.580586,682.712984 837.554287,682.717927 837.527965,682.722808 C837.413229,682.744053 837.298263,682.764115 837.182895,682.78298 C837.165824,682.785795 837.148816,682.788549 837.131799,682.791276 C836.859988,682.834822 836.585957,682.871753 836.309879,682.901873 C836.28764,682.904307 836.265648,682.906661 836.243643,682.908972 C836.135947,682.920276 836.027862,682.930559 835.919477,682.939794 C835.880207,682.943145 835.840509,682.946384 835.800771,682.949483 C835.684714,682.958529 835.568616,682.96636 835.452194,682.972984 C835.393469,682.976328 835.334149,682.979388 835.274748,682.982133 C835.188706,682.986108 835.102795,682.989415 835.016718,682.992063 C834.977143,682.99328 834.937773,682.994352 834.898368,682.995285 C834.872911,682.995889 834.846912,682.996446 834.820899,682.996942 L834.5,683 C825.387302,683 818,675.612698 818,666.5 C818,657.387302 825.387302,650 834.5,650 C843.612698,650 851,657.387302 851,666.5 C851,666.613574 850.998853,666.726879 850.996569,666.839906 L851,666.5 C851,666.688641 850.996834,666.876542 850.990553,667.063654 C850.981516,667.332915 850.966021,667.600604 850.944222,667.866507 C850.941754,667.896621 850.939181,667.926979 850.936527,667.957314 C850.912513,668.231702 850.881798,668.504053 850.844538,668.774314 C850.838684,668.816778 850.832682,668.859093 850.82652,668.901355 C850.787587,669.168355 850.742292,669.433118 850.690771,669.695648 C850.686863,669.715563 850.682839,669.735866 850.678778,669.756156 C850.654789,669.875983 850.629653,669.994665 850.603249,670.112869 C850.595969,670.145457 850.588575,670.178093 850.581083,670.210691 C850.488601,670.613135 850.381356,671.010103 850.259979,671.400849 C850.239167,671.46785 850.217885,671.534837 850.196188,671.601638 C850.17729,671.659819 850.158123,671.717726 850.138644,671.77549 C850.119295,671.832865 850.099764,671.889744 850.079931,671.946481 C850.036137,672.071762 849.990894,672.196307 849.944203,672.320142 C849.932964,672.349948 849.921771,672.379376 849.910496,672.408764 C849.874892,672.501571 849.838318,672.594358 849.800933,672.68673 C849.79066,672.712109 849.780512,672.737005 849.770305,672.76187 C849.389707,673.689192 848.926511,674.575092 848.390181,675.409517 C848.376332,675.431061 848.362564,675.452373 848.348748,675.473651 C848.164726,675.757076 847.972045,676.034761 847.771243,676.306071 C847.755894,676.32681 847.740472,676.347544 847.725004,676.368241 C846.504135,678.001756 844.987724,679.401519 843.255029,680.488273 L843.12433,680.569766 L843.084847,680.59358 C843.005971,680.641729 842.926659,680.689234 842.846918,680.736088 L843.12433,680.569766 C843.001952,680.644942 842.878512,680.718567 842.75404,680.790614 C842.650181,680.850369 842.546146,680.909086 842.441419,680.966698 C842.393944,680.99316 842.345677,681.019399 842.297263,681.045404 C842.242549,681.074458 842.187949,681.103393 842.133168,681.132029 C841.936698,681.235051 841.737769,681.333966 841.536602,681.428937 C841.472665,681.45884 841.408235,681.488755 841.343581,681.518264 C841.286696,681.544496 841.22974,681.570095 841.172613,681.59538 C841.11714,681.619679 841.061217,681.644065 841.005133,681.668149 C840.929963,681.70067 840.854619,681.732354 840.778991,681.763494 C840.697011,681.797026 840.614816,681.830099 840.532296,681.862527 C840.487008,681.88053 840.441382,681.898222 840.395659,681.915716 C840.310074,681.948267 840.22445,681.980214 840.138493,682.011467 C840.107596,682.022878 840.076233,682.034172 840.044825,682.045374 C839.947192,682.080027 839.84951,682.113832 839.751417,682.146741 C839.677069,682.171831 839.602101,682.196378 839.526898,682.2204 C839.474333,682.23706 839.421651,682.253599 839.368857,682.269881 C839.303669,682.290104 839.238354,682.309796 839.172868,682.329093 C838.96316,682.390784 838.752293,682.448386 838.539789,682.501866 L838.431993,682.528677 Z M829.129834,661.525436 L829.297339,661.70154 C829.410454,661.817716 829.526098,661.93127 829.642111,662.041213 L829.816137,662.203295 C830.569107,662.892834 831.29201,663.408827 831.39144,663.479022 L831.403048,663.487183 C837.1447,666.158794 841.135855,676.525136 841.135855,676.525136 C841.404648,677.358588 841.726247,678.133939 842.094406,678.854983 C844.942069,677.099829 847.136307,674.390004 848.230938,671.171804 C847.25932,670.049563 846.33576,668.731833 845.477174,667.192101 C840.68093,658.713749 831.963054,658.001514 831.963054,658.001514 C826.81652,657.937364 827.644225,659.925035 829.129834,661.525436 Z M845.550102,669.843282 C846.149966,670.596473 846.149966,671.447634 845.550102,671.873363 C845.062457,672.200824 844.050102,671.873363 843.449898,671.120173 C842.88532,670.411567 842.85211,669.615915 843.350267,669.251754 L843.449898,669.188657 C844.050102,668.762928 845.025051,669.090389 845.550102,669.843282 Z M841.398452,664.666312 C842.077414,665.42061 842.197273,666.333688 841.678003,666.73082 C841.158733,667.247127 840.240414,666.969171 839.601284,666.333688 C838.922684,665.57939 838.802825,664.666312 839.321733,664.26918 C839.841003,663.752873 840.759684,664.030829 841.398452,664.666312 Z M837.283843,661.112065 C837.851682,661.475963 838.135344,662.057935 837.936884,662.531035 C837.738166,663.040425 837.170327,663.149628 836.716004,662.78573 C836.148423,662.421833 835.864503,661.83953 836.063221,661.36676 C836.261939,661.002863 836.716004,660.893661 837.283843,661.112065 Z" id="icon_github"></path>
        </g>
    </g>
</svg>