<?xml version="1.0" encoding="UTF-8"?>
<svg width="33px" height="33px" viewBox="0 0 33 33" version="1.1" xmlns="http://www.w3.org/2000/svg" xmlns:xlink="http://www.w3.org/1999/xlink">
    <title>icon_hosts</title>
    <g id="GitPage" stroke="none" stroke-width="1" fill="none" fill-rule="evenodd">
        <g id="DevOpsWeb_Main_XL-1200" transform="translate(-469, -651)" fill="#303236">
            <path d="M488.022425,651.191593 L488.056822,651.196906 C488.084242,651.201172 488.111639,651.205505 488.139014,651.209906 C488.222399,651.223309 488.305771,651.237371 488.388928,651.252056 C488.431102,651.259504 488.4731,651.26709 488.515043,651.274835 C488.586626,651.288051 488.658277,651.301776 488.729763,651.315962 C488.767005,651.323352 488.804295,651.330887 488.841539,651.338548 C488.912795,651.353206 488.983462,651.36823 489.05396,651.383706 C489.100148,651.393843 489.146763,651.404289 489.193303,651.414931 C489.24342,651.426392 489.293139,651.438007 489.34277,651.449846 C489.660155,651.525548 489.974314,651.610521 490.284612,651.704387 C490.356339,651.726086 490.427728,651.748217 490.498908,651.770819 C490.527358,651.779853 490.555741,651.788951 490.584091,651.798123 C490.643175,651.817239 490.702387,651.836771 490.761449,651.856628 C491.033725,651.94818 491.302258,652.046415 491.567424,652.151324 C491.761238,652.228 491.953488,652.308344 492.143853,652.392181 C492.195223,652.414805 492.246252,652.437591 492.297144,652.460628 C492.343771,652.481734 492.390654,652.503222 492.437418,652.524922 C492.50401,652.555826 492.570009,652.586991 492.635767,652.61858 C492.658997,652.62974 492.682009,652.640861 492.704992,652.652034 C492.871909,652.733177 493.037553,652.81721 493.20156,652.903927 C493.244724,652.926751 493.287377,652.949546 493.329918,652.972523 C493.348663,652.982647 493.367611,652.992929 493.386536,653.003246 L493.329918,652.972523 C493.565384,653.0997 493.797408,653.232436 494.025812,653.370553 C494.037626,653.377696 494.049631,653.384976 494.061626,653.392271 C494.234521,653.497426 494.405109,653.605523 494.57354,653.716625 C494.60862,653.739764 494.643603,653.763032 494.678491,653.786429 C494.736517,653.825343 494.794182,653.864547 494.851584,653.904105 C494.891958,653.931929 494.931962,653.95976 494.971838,653.987764 C495.318435,654.231151 495.655747,654.487951 495.982527,654.757077 C496.025769,654.792689 496.068829,654.828519 496.111702,654.864563 C496.155257,654.90118 496.198623,654.938021 496.241795,654.975082 C496.259396,654.990191 496.276964,655.005336 496.2945,655.020517 L496.406785,655.118613 C496.422234,655.132233 496.437658,655.145881 496.453055,655.159557 C496.505416,655.206064 496.557688,655.253089 496.609657,655.300442 C496.644063,655.331793 496.678185,655.363148 496.712174,655.394645 C496.750534,655.430191 496.7888,655.465987 496.826893,655.501963 C497.063288,655.725219 497.292974,655.955264 497.515748,656.191889 C497.548758,656.226954 497.581405,656.261934 497.613901,656.297055 C497.650307,656.3364 497.686704,656.376124 497.72291,656.416025 C497.761343,656.458384 497.799346,656.500703 497.837133,656.54322 C497.955832,656.67677 498.072645,656.81256 498.18726,656.950245 C498.45416,657.270849 498.709461,657.602183 498.952124,657.943136 C498.982635,657.986008 499.012703,658.028684 499.042574,658.071508 C499.060675,658.097458 499.07894,658.123806 499.097131,658.15021 C499.141815,658.21507 499.185906,658.280056 499.229543,658.34537 C499.256209,658.385281 499.282924,658.425648 499.309467,658.466139 C500.925505,660.931644 501.899025,663.855439 501.992576,667.000244 L501.981919,666.742769 C501.988808,666.882716 501.993638,667.023184 501.996562,667.164114 C501.998879,667.275795 502,667.387766 502,667.5 C502,667.654782 501.997869,667.809066 501.993634,667.962825 L502,667.5 C502,667.710461 501.99606,667.920002 501.988249,668.128553 C501.982442,668.283628 501.974483,668.438347 501.964408,668.592489 C501.962181,668.62654 501.959877,668.6602 501.957473,668.693832 C501.94676,668.843698 501.934016,668.993308 501.91929,669.142336 C501.916699,669.168548 501.914112,669.194106 501.911467,669.219648 C501.613484,672.097138 500.576001,674.755065 498.992331,677.000118 L498.911435,677.113778 C498.87415,677.1657 498.836571,677.217395 498.798701,677.268863 L498.992331,677.000118 C498.775204,677.307924 498.547809,677.607968 498.310646,677.899754 C498.267342,677.953032 498.22371,678.006037 498.179756,678.058763 C498.156832,678.086261 498.133938,678.113544 498.110957,678.140752 C497.971307,678.306096 497.828315,678.468818 497.682219,678.628656 L497.665332,678.647103 C497.638152,678.67675 497.610865,678.706297 497.583472,678.735744 C497.541005,678.781391 497.498735,678.826321 497.456218,678.871012 C497.441445,678.886541 497.426207,678.902496 497.410937,678.918421 C497.352774,678.97907 497.294848,679.03857 497.236481,679.097633 C497.203281,679.131226 497.170053,679.164565 497.136683,679.197762 C496.941332,679.392101 496.741065,679.581649 496.53615,679.766135 C496.447931,679.84556 496.358812,679.92408 496.268847,680.001646 C496.234224,680.031497 496.199397,680.061273 496.164446,680.090907 C496.126111,680.123408 496.087592,680.155767 496.048923,680.187952 C496.007858,680.222131 495.966795,680.255974 495.925567,680.289622 C495.868985,680.335803 495.811782,680.381861 495.754267,680.427544 C495.733712,680.44387 495.713394,680.45993 495.693038,680.475943 C495.55234,680.586624 495.409506,680.695281 495.264874,680.801635 C495.237903,680.821468 495.210907,680.841194 495.183849,680.860839 C495.125283,680.903363 495.066146,680.945709 495.006721,680.987671 C494.736784,681.178266 494.461478,681.360586 494.180557,681.534707 C494.156871,681.549388 494.132847,681.564195 494.108782,681.578941 C493.927336,681.690127 493.743541,681.797922 493.557519,681.902218 C493.549086,681.906947 493.540035,681.912011 493.530979,681.917066 L493.557519,681.902218 C493.37089,682.006854 493.18202,682.107968 492.990998,682.205469 C492.907656,682.248012 492.823524,682.290052 492.738986,682.331391 C492.709098,682.346007 492.679044,682.36059 492.648939,682.375085 C492.597019,682.400082 492.545328,682.424636 492.493489,682.44893 C492.440838,682.473605 492.387806,682.498114 492.334623,682.522349 C492.28245,682.546124 492.230177,682.569615 492.17776,682.592841 C492.135724,682.611468 492.093449,682.629987 492.051083,682.648334 C491.992219,682.673825 491.933215,682.698967 491.874035,682.723774 C491.834622,682.740295 491.795282,682.756606 491.755866,682.772768 C491.442193,682.901394 491.123354,683.020749 490.800015,683.130352 C490.748351,683.147864 490.697043,683.164971 490.645623,683.181833 C490.602365,683.196019 490.559018,683.210033 490.515593,683.223873 C490.459683,683.241693 490.403328,683.25932 490.346845,683.276652 C490.281616,683.296667 490.216287,683.316267 490.150788,683.335473 C490.111936,683.346863 490.073644,683.357938 490.035295,683.368877 C489.98221,683.384022 489.928438,683.399066 489.874557,683.413844 C489.786328,683.43804 489.69821,683.461418 489.609805,683.484081 C489.566368,683.495216 489.523013,683.506142 489.47959,683.516895 C489.164662,683.594891 488.845867,683.663896 488.52379,683.723548 C488.488649,683.730056 488.453672,683.736416 488.418657,683.742666 C488.343764,683.756035 488.268422,683.768943 488.192907,683.781339 C488.149052,683.788539 488.105043,683.79558 488.060977,683.802447 C488.013629,683.809824 487.966609,683.816941 487.919524,683.82386 C487.799825,683.841453 487.679154,683.85783 487.558075,683.872895 C487.386055,683.894295 487.213531,683.913018 487.040231,683.929061 C487.001472,683.93265 486.962119,683.936153 486.922725,683.939517 C486.84,683.946581 486.757353,683.953016 486.674537,683.958841 C486.643925,683.960993 486.613577,683.963044 486.583206,683.965012 C486.49233,683.970903 486.40098,683.976071 486.309435,683.980493 C486.279325,683.981947 486.249317,683.983316 486.219287,683.984604 C486.141019,683.987961 486.062473,683.990778 485.983788,683.993044 C485.934047,683.994475 485.884667,683.995677 485.835234,683.996662 C485.830904,683.996749 485.825902,683.996846 485.820899,683.996942 L485.5,684 C476.387302,684 469,676.612698 469,667.5 C469,658.387302 476.387302,651 485.5,651 C485.615249,651 485.730222,651.001182 485.844907,651.003533 L485.5,651 C485.667441,651 485.834299,651.002494 486.00054,651.007447 C486.060375,651.009231 486.119917,651.011324 486.179378,651.013732 C486.236674,651.016053 486.293715,651.018657 486.350679,651.02155 C486.42187,651.025165 486.49322,651.029248 486.564448,651.033783 C486.59933,651.036005 486.633996,651.038321 486.668631,651.040745 C486.739317,651.04569 486.809973,651.051089 486.880503,651.056931 C486.936724,651.061589 486.992724,651.066515 487.048643,651.07172 C487.110806,651.077505 487.173305,651.08368 487.2357,651.090203 C487.283388,651.095189 487.330703,651.100343 487.377957,651.105697 L487.713105,651.14714 C487.816518,651.161003 487.919628,651.175823 488.022425,651.191593 Z M499.9233,669.000529 L481,669 C479.895431,669 479,669.895431 479,671 L479,675 C479,676.104569 479.895431,677 481,677 L496.453866,677.001016 C498.354961,674.811106 499.610246,672.04547 499.9233,669.000529 Z M483,671 C483.552285,671 484,671.447715 484,672 C484,672.552285 483.552285,673 483,673 C482.447715,673 482,672.552285 482,672 C482,671.447715 482.447715,671 483,671 Z M494,671 C494.552285,671 495,671.447715 495,672 C495,672.552285 494.552285,673 494,673 L488,673 C487.447715,673 487,672.552285 487,672 C487,671.447715 487.447715,671 488,671 L494,671 Z M497.248804,659.000235 L481,659 C479.895431,659 479,659.895431 479,661 L479,665 C479,666.104569 479.895431,667 481,667 L499.991544,667.000092 C499.890479,664.017072 498.888369,661.26259 497.248804,659.000235 Z M483,661 C483.552285,661 484,661.447715 484,662 C484,662.552285 483.552285,663 483,663 C482.447715,663 482,662.552285 482,662 C482,661.447715 482.447715,661 483,661 Z M496,661 C496.552285,661 497,661.447715 497,662 C497,662.552285 496.552285,663 496,663 L488,663 C487.447715,663 487,662.552285 487,662 C487,661.447715 487.447715,661 488,661 L496,661 Z" id="icon_hosts"></path>
        </g>
    </g>
</svg>