<svg xmlns="http://www.w3.org/2000/svg" width="139.602" height="26.001" viewBox="0 0 139.602 26.001">
  <g id="Alludo" transform="translate(0 4.003)" class="footer-alludo-icon">
    <path id="Path_84" data-name="Path 84"
      d="M138.872,7.663c-5.208,0-8.871,3.879-8.871,9.409s3.663,9.409,8.871,9.409,8.871-3.879,8.871-9.409-3.663-9.409-8.871-9.409m0,15.694c-3.232,0-5.423-2.55-5.423-6.285s2.191-6.285,5.423-6.285,5.423,2.55,5.423,6.285-2.191,6.285-5.423,6.285"
      transform="translate(-8.142 -4.483)" />
    <path id="Path_85" data-name="Path 85"
      d="M122.2,13.576c-.5-4.274-2.551-6.393-6.142-6.393-4.74,0-8.009,3.842-8.009,9.409S111.317,26,116.057,26c3.555,0,5.638-2.011,6.142-6.393v6.106h3.412V0H122.2Zm-5.351,9.3c-3.232,0-5.351-2.514-5.351-6.285s2.119-6.285,5.351-6.285,5.351,2.514,5.351,6.285-2.119,6.285-5.351,6.285"
      transform="translate(-6.767 -4.003)" />
    <path id="Path_86" data-name="Path 86"
      d="M100.247,17.091c0,3.951-2.012,6.285-5.423,6.285-2.945,0-4.131-1.616-4.131-5.53V7.969H87.282V18.42c0,5.35,2.262,8.08,6.752,8.08,3.842,0,5.71-1.9,6.213-6.285v6h3.412V7.969h-3.412Z"
      transform="translate(-5.466 -4.502)" />
    <rect id="Rectangle_1461" data-name="Rectangle 1461" width="3.412" height="25.714"
      transform="translate(74.669 -4.003)" />
    <rect id="Rectangle_1462" data-name="Rectangle 1462" width="3.412" height="25.714"
      transform="translate(67.163 -4.003)" />
    <path id="Path_87" data-name="Path 87"
      d="M52.981.613l-8.763,25.14h3.843l2.047-6h11.78l2.047,6h3.842L59.015.613Zm4.6,16.017H51.15L56,2.552l5.854,17.094a4.488,4.488,0,0,0-4.273-3.016"
      transform="translate(-2.769 -4.041)" />
    <path id="Path_88" data-name="Path 88"
      d="M33.812,13.558a11.629,11.629,0,0,0-9.625,6.018V.611a.542.542,0,0,0-.549-.543A24.187,24.187,0,0,0,0,24.248c0,.317.007.632.02.946a.543.543,0,0,0,.542.524H33.839a.543.543,0,0,0,.543-.542V14.1a.544.544,0,0,0-.57-.543"
      transform="translate(0 -4.007)" />
  </g>
</svg>