<?xml version="1.0" encoding="UTF-8"?>
<svg width="32px" height="32px" viewBox="0 0 32 32" version="1.1" xmlns="http://www.w3.org/2000/svg" xmlns:xlink="http://www.w3.org/1999/xlink">
    <title>icon_catalog</title>
    <g id="icon_catalog" stroke="none" stroke-width="1" fill="none" fill-rule="evenodd">
        <path d="M23.0245714,5.99939101 C24.7248155,5.99939101 26.1947862,6.15987166 27.330458,6.55750217 C27.7314893,6.69791442 28,7.07642092 28,7.50132285 L28,24.525881 C28,25.2143563 27.3205072,25.6968948 26.6704834,25.4700308 C25.7757728,25.157769 24.4622253,25.01568 22.9787231,25.0172977 C20.6730725,25.0172977 18.6930542,25.9156474 16.6629238,27.7132237 L16.697,27.6823909 L16.6891502,27.6910631 C16.665683,27.7130342 16.6412061,27.7338305 16.6158336,27.7534006 L16.585,27.7743909 L16.5767543,27.7819668 L16.557,27.7933909 L16.5371439,27.8083811 L16.522,27.8153909 L16.4870478,27.8393413 C16.3349702,27.925663 16.1710108,27.9659008 16.0094487,27.9664836 L15.999,27.9664836 C15.8289892,27.9659008 15.6650298,27.925663 15.5129522,27.8393413 L15.477,27.8153909 L15.4628561,27.8083811 L15.442,27.7933909 L15.4232457,27.7819668 L15.414,27.7743909 L15.3841664,27.7534006 C15.3587939,27.7338305 15.334317,27.7130342 15.3108498,27.6910631 L15.302,27.6823909 L15.0605155,27.4736733 C13.218376,25.9138276 11.4034955,25.0971114 9.33275192,25.0228655 L9.02018603,25.0172971 C7.53777473,25.01568 6.22422715,25.157769 5.32951658,25.4700308 C4.67949284,25.6968948 4,25.2143563 4,24.525881 L4,7.50132285 C4,7.07642092 4.26851073,6.69791442 4.66954197,6.55750217 C5.80521385,6.15987166 7.27518453,5.99939101 8.97407738,5.99939101 C11.6164939,5.99583452 13.8733573,6.67956245 15.8389043,8.13065826 L16,8.25339095 L16.1610931,8.13065826 C18.033025,6.74866224 20.1690722,6.06269142 22.649858,6.0035782 L23.0245714,5.99939101 Z M8.97542857,7.99940401 C7.94130665,7.99940401 7.011543,8.06616559 6.24686627,8.20893364 L6,8.25839095 L6,23.2443909 L6.28563249,23.1973621 C6.99515189,23.0892845 7.77484072,23.0334012 8.60316278,23.0203168 L9.02127687,23.0172977 C11.1557527,23.0172977 13.0544814,23.6366586 14.8697859,24.8312076 L15,24.9193909 L15,10.0123909 L14.8216952,9.86874756 C13.2550185,8.65657606 11.4764541,8.06060997 9.33561523,8.00387938 L8.97542857,7.99940401 Z M23.0232202,7.99939093 C20.7216895,7.99629329 18.8320068,8.58923319 17.1783036,9.86874756 L17,10.0113909 L17,24.9183909 L17.1301971,24.8312076 C18.844603,23.7030225 20.6332845,23.087891 22.6241738,23.0230254 L22.9776323,23.0172983 C23.9628593,23.0162235 24.8864055,23.0712717 25.7142886,23.1973621 L26,23.2443909 L26,8.25839095 L25.7530944,8.20893362 C25.073303,8.08202863 24.2629151,8.01517803 23.3642676,8.00188862 L23.0232202,7.99939093 Z" id="Shape" fill="#000000" fill-rule="nonzero"></path>
    </g>
</svg>