<?xml version="1.0" encoding="UTF-8"?>
<svg width="32px" height="32px" viewBox="0 0 32 32" version="1.1" xmlns="http://www.w3.org/2000/svg" xmlns:xlink="http://www.w3.org/1999/xlink">
    <title>icon_rocket</title>
    <g id="icon_rocket" stroke="none" stroke-width="1" fill="none" fill-rule="evenodd">
        <path d="M27.1168847,6.11132877 L27.0580702,7.18697071 C26.7890424,12.1071419 25.2995006,15.912611 22.565636,18.5526733 C22.0027059,19.0962886 21.430221,19.5875329 20.8545828,20.0239539 L20.8541325,20.4919282 C20.8384401,21.0502298 20.7383472,21.8865988 20.4829881,22.8799395 C19.8615293,25.2973985 18.6324388,27.3126491 16.580469,28.4921731 L15.5784714,29.0681466 L15.1525084,27.993763 C14.3359209,25.9341283 13.5542997,24.0112148 12.8076866,22.2250949 L12.8900354,22.1917044 C12.7777058,22.1512759 12.6671298,22.1067096 12.558406,22.0579679 L12.3822493,21.9789954 L10.7812686,20.3211314 L10.7085517,20.1441229 L10.6600881,20.0193288 L10.6431398,20.0605481 L9.07868112,19.4120215 C8.01337726,18.9739562 6.90341284,18.5244636 5.74880138,18.0635514 L3.80008811,17.2897633 L4.37606157,16.2877657 C5.5555856,14.2357959 7.57083615,13.0067054 9.98829515,12.3852466 C10.9816359,12.1298874 11.8180049,12.0297946 12.3763065,12.0141022 L12.8941296,12.0140435 C13.374754,11.4088031 13.9192407,10.8098907 14.5242828,10.2256083 C17.2581474,7.58554597 21.1132825,6.22972049 26.0398454,6.13256811 L27.1168847,6.11132877 Z M8.31741248,19.8577432 L9.59059423,21.4001466 C8.40808281,22.3762544 7.76708344,23.4897692 7.63638836,24.7899025 L7.62631894,24.9245007 L7.78177417,24.918874 C9.02992271,24.8384931 10.09139,24.3373962 11.0077938,23.4009061 L11.1891527,23.2077985 L12.6741809,24.5474594 C11.0477421,26.350384 8.96750972,27.1403594 6.53213335,26.8825951 L5.71317862,26.7959156 L5.64121266,25.975537 C5.42930712,23.5599119 6.34169128,21.4886085 8.31741248,19.8577432 Z M18.7562961,21.3649272 L18.5841374,21.4545225 C17.3722389,22.0640883 16.1838637,22.4138924 15.0796159,22.4807191 L15.6905158,23.9685007 L16.5341032,26.0549126 L16.6609581,25.9346895 C17.5624459,25.0414613 18.1776851,23.814602 18.5459687,22.3819879 C18.6058621,22.1490041 18.6566015,21.9195537 18.6989562,21.6958636 L18.7562961,21.3649272 Z M24.976242,8.17853548 L24.7313713,8.19466862 C20.9375617,8.47686884 18.0102776,9.63954945 15.9135995,11.6642879 C13.1429134,14.3399083 11.9407514,17.1931496 12.4475257,19.0565085 L12.4957304,19.216006 L13.5425806,20.3000511 L13.697813,20.3531642 C15.4733459,20.8957434 18.2230293,19.8650313 20.9233409,17.3537601 L21.1763193,17.1139937 C23.2729973,15.0892553 24.5371304,12.2043314 24.9515607,8.4226815 L24.976242,8.17853548 Z M11.494595,14.1142023 L11.203546,14.1634228 C10.9700176,14.2069331 10.730067,14.2595869 10.4862468,14.322266 C9.05363267,14.6905496 7.82677337,15.3057888 6.93354514,16.2072765 L6.8133049,16.3341481 L8.88006041,17.1696706 C9.37982567,17.3733081 9.87036563,17.5745973 10.3516815,17.7735389 C10.4158948,16.7213923 10.7454694,15.5975445 11.316174,14.4568584 L11.494595,14.1142023 Z M21.6484092,11.400509 C22.7993568,12.5923502 22.7662061,14.4915559 21.5743649,15.6425035 C20.3825237,16.7934512 18.483318,16.7603004 17.3323704,15.5684592 C16.1814227,14.376618 16.2145734,12.4774124 17.4064146,11.3264647 C18.5982559,10.1755171 20.4974615,10.2086678 21.6484092,11.400509 Z M18.7957314,12.7651443 C18.398451,13.1487935 18.3874007,13.7818621 18.77105,14.1791425 C19.1546992,14.5764229 19.7877677,14.5874732 20.1850481,14.2038239 C20.5823285,13.8201747 20.5933788,13.1871062 20.2097296,12.7898258 C19.8260803,12.3925454 19.1930118,12.3814951 18.7957314,12.7651443 Z" id="Shape" fill="#000000" fill-rule="nonzero"></path>
    </g>
</svg>