<?xml version="1.0" encoding="UTF-8"?>
<svg width="32px" height="32px" viewBox="0 0 32 32" version="1.1" xmlns="http://www.w3.org/2000/svg" xmlns:xlink="http://www.w3.org/1999/xlink">
    <title>icon_hosts</title>
    <g id="icon_hosts" stroke="none" stroke-width="1" fill="none" fill-rule="evenodd">
        <path d="M25,7 C26.6568542,7 28,8.34314575 28,10 L28,24 C28,25.6568542 26.6568542,27 25,27 L7,27 C5.34314575,27 4,25.6568542 4,24 L4,10 C4,8.34314575 5.34314575,7 7,7 L25,7 Z M26,21 L6,21 L6,24 C6,24.5522847 6.44771525,25 7,25 L25,25 C25.5522847,25 26,24.5522847 26,24 L26,21 Z M23,22 L23.1166211,22.0067277 C23.6139598,22.0644928 24,22.4871642 24,23 C24,23.5522847 23.5522847,24 23,24 C22.4477153,24 22,23.5522847 22,23 C22,22.4477153 22.4477153,22 23,22 Z M26,15 L6,15 L6,19 L26,19 L26,15 Z M23,16 L23.1166211,16.0067277 C23.6139598,16.0644928 24,16.4871642 24,17 C24,17.5522847 23.5522847,18 23,18 C22.4477153,18 22,17.5522847 22,17 C22,16.4477153 22.4477153,16 23,16 Z M25,9 L7,9 C6.44771525,9 6,9.44771525 6,10 L6,13 L26,13 L26,10 C26,9.44771525 25.5522847,9 25,9 Z M23,10 L23.1166211,10.0067277 C23.6139598,10.0644928 24,10.4871642 24,11 C24,11.5522847 23.5522847,12 23,12 C22.4477153,12 22,11.5522847 22,11 C22,10.4477153 22.4477153,10 23,10 Z" id="Shape" fill="#000000" fill-rule="nonzero"></path>
    </g>
</svg>